<?xml version="1.0" encoding="UTF-8" standalone="no"?><!DOCTYPE svg PUBLIC "-//W3C//DTD SVG 1.1//EN" "http://www.w3.org/Graphics/SVG/1.1/DTD/svg11.dtd"><svg width="100%" height="100%" viewBox="0 0 271 267" version="1.1" xmlns="http://www.w3.org/2000/svg" xmlns:xlink="http://www.w3.org/1999/xlink" xml:space="preserve" xmlns:serif="http://www.serif.com/" style="fill-rule:evenodd;clip-rule:evenodd;stroke-linejoin:round;stroke-miterlimit:2;"><rect id="coin" x="3.858" y="-0" width="266.667" height="266.667" style="fill:none;"/><clipPath id="_clip1"><rect x="3.858" y="-0" width="266.667" height="266.667"/></clipPath><g clip-path="url(#_clip1)"><g><g><path d="M207.557,132.55l-24.502,20.526l7.495,30.698c3.603,14.75 -12.802,26.418 -26.026,18.502l-27.515,-16.46l-27.519,16.46c-13.224,7.916 -29.629,-3.752 -26.026,-18.502l7.499,-30.698l-24.502,-20.526c-11.779,-9.863 -5.514,-28.736 9.937,-29.945l32.15,-2.504l12.376,-29.15c5.948,-14.008 26.222,-14.008 32.17,0l12.372,29.15l32.15,2.504c15.451,1.209 21.719,20.082 9.941,29.945m-70.548,-126.789c-73.62,0 -133.301,58.406 -133.301,130.453c0,72.047 59.681,130.453 133.301,130.453c73.62,-0 133.3,-58.406 133.3,-130.453c0,-72.047 -59.68,-130.453 -133.3,-130.453" style="fill:#fcae00;fill-rule:nonzero;stroke:#ff9800;stroke-width:4.17px;"/><path d="M207.492,126.789l-24.503,20.525l7.496,30.698c3.603,14.751 -12.802,26.419 -26.027,18.503l-27.515,-16.46l-27.519,16.46c-13.224,7.916 -29.629,-3.752 -26.026,-18.503l7.499,-30.698l-24.502,-20.525c-11.778,-9.863 -5.514,-28.736 9.938,-29.945l32.149,-2.505l12.377,-29.149c5.947,-14.009 26.221,-14.009 32.169,0l12.372,29.149l32.15,2.505c15.452,1.209 21.72,20.082 9.942,29.945m-70.549,-126.789c-73.62,-0 -133.3,58.406 -133.3,130.453c-0,72.047 59.68,130.452 133.3,130.452c73.62,0 133.301,-58.405 133.301,-130.452c-0,-72.047 -59.681,-130.453 -133.301,-130.453" style="fill:#fccb00;fill-rule:nonzero;"/><clipPath id="_clip2"><path d="M207.492,126.789l-24.503,20.525l7.496,30.698c3.603,14.751 -12.802,26.419 -26.027,18.503l-27.515,-16.46l-27.519,16.46c-13.224,7.916 -29.629,-3.752 -26.026,-18.503l7.499,-30.698l-24.502,-20.525c-11.778,-9.863 -5.514,-28.736 9.938,-29.945l32.149,-2.505l12.377,-29.149c5.947,-14.009 26.221,-14.009 32.169,0l12.372,29.149l32.15,2.505c15.452,1.209 21.72,20.082 9.942,29.945m-70.549,-126.789c-73.62,-0 -133.3,58.406 -133.3,130.453c-0,72.047 59.68,130.452 133.3,130.452c73.62,0 133.301,-58.405 133.301,-130.452c-0,-72.047 -59.681,-130.453 -133.301,-130.453" clip-rule="nonzero"/></clipPath><g clip-path="url(#_clip2)"><path d="M36.397,281.85l306.437,-306.437l-20.616,-20.617l-306.438,306.438l20.617,20.616Z" style="fill:#fcad00;"/><path d="M-4.721,244.135l306.437,-306.437l-40.726,-40.727l-306.438,306.438l40.727,40.726Z" style="fill:#fcad00;"/></g></g></g></g></svg>