<?xml version="1.0" encoding="UTF-8"?>
<svg id="Layer_1" xmlns="http://www.w3.org/2000/svg" xmlns:xlink="http://www.w3.org/1999/xlink" xmlns:serif="http://www.serif.com/" version="1.1" viewBox="0 0 1920 1080">
  <!-- Generator: Adobe Illustrator 29.6.1, SVG Export Plug-In . SVG Version: 2.1.1 Build 9)  -->
  <defs>
    <style>
      .st0 {
        fill: none;
      }

      .st1 {
        mask: url(#mask);
      }

      .st2 {
        filter: url(#luminosity-noclip);
      }

      .st3 {
        fill: #875925;
      }

      .st4 {
        fill: url(#linear-gradient1);
        mix-blend-mode: screen;
      }

      .st5, .st6, .st7 {
        fill-rule: evenodd;
      }

      .st5, .st8, .st9 {
        fill: #fff;
      }

      .st5, .st9 {
        fill-opacity: .36;
      }

      .st10 {
        fill: #e2e2e2;
      }

      .st6, .st11 {
        fill: #0d4a6a;
      }

      .st12 {
        fill: #724b1e;
      }

      .st13 {
        fill: #5e340c;
      }

      .st14 {
        fill: url(#linear-gradient);
      }

      .st15 {
        fill: #503718;
      }

      .st16 {
        fill: #00224a;
      }

      .st17 {
        fill: #724c1f;
      }

      .st18 {
        clip-path: url(#clippath-1);
      }

      .st19 {
        clip-path: url(#clippath-3);
      }

      .st20 {
        clip-path: url(#clippath-4);
      }

      .st21 {
        clip-path: url(#clippath-2);
      }

      .st22 {
        clip-path: url(#clippath-7);
      }

      .st23 {
        clip-path: url(#clippath-6);
      }

      .st24 {
        clip-path: url(#clippath-8);
      }

      .st25 {
        clip-path: url(#clippath-5);
      }

      .st26 {
        fill: #c9c9c9;
      }

      .st27 {
        opacity: .15;
      }

      .st28 {
        fill: #424242;
      }

      .st7 {
        fill: #ddd;
      }

      .st29 {
        clip-path: url(#clippath);
      }
    </style>
    <clipPath id="clippath">
      <rect class="st0" x="752.41" y="276.92" width="415.13" height="526.22"/>
    </clipPath>
    <clipPath id="clippath-1">
      <path class="st0" d="M995.25,338.91c37.45-37.69,98.66-70.74,135.06-50.64,44.23,24.42,36.17,118.55,13.32,168.2,10.36,24.17,16.1,50.82,16.1,78.81,0,109.94-92.12,142.63-201.33,142.63s-194.41-32.68-194.41-142.63c0-26.62,5.21-52.02,14.63-75.24-24.15-48.56-33.71-146.75,11.6-171.77,36.56-20.19,98.12,13.23,135.54,51.12,11.71-2.18,23.77-3.31,36.1-3.31,11.37,0,22.52.97,33.38,2.83Z"/>
    </clipPath>
    <clipPath id="clippath-2">
      <path class="st0" d="M927.27,736.29v48.35c0,6.14,4.68,11.11,10.45,11.11h48.61c5.77,0,10.45-4.97,10.45-11.11v-48.35h-69.51Z"/>
    </clipPath>
    <clipPath id="clippath-3">
      <rect class="st0" x="2103.45" y=".03" width="852" height="1080"/>
    </clipPath>
    <clipPath id="clippath-4">
      <path class="st0" d="M2601.83,127.27c76.86-77.35,202.48-145.19,277.19-103.93,90.79,50.12,74.24,243.31,27.34,345.22,21.27,49.61,33.05,104.3,33.05,161.74,0,225.64-189.06,292.72-413.21,292.72s-398.99-67.08-398.99-292.72c0-54.63,10.69-106.76,30.03-154.42-49.56-99.67-69.19-301.19,23.81-352.54,75.04-41.44,201.39,27.16,278.17,104.92,24.03-4.46,48.79-6.8,74.1-6.8,23.34,0,46.21,1.99,68.5,5.81Z"/>
    </clipPath>
    <clipPath id="clippath-5">
      <path class="st0" d="M2462.32,942.82v99.24c0,12.6,9.61,22.81,21.46,22.81h99.76c11.85,0,21.45-10.21,21.45-22.81v-99.24h-142.67Z"/>
    </clipPath>
    <clipPath id="clippath-6">
      <rect class="st0" x="2103.45" y=".03" width="852" height="1080"/>
    </clipPath>
    <clipPath id="clippath-7">
      <path class="st0" d="M2601.83,127.27c76.86-77.35,202.48-145.19,277.19-103.93,90.79,50.12,74.24,243.31,27.34,345.22,21.27,49.61,33.05,104.3,33.05,161.74,0,225.64-189.06,292.72-413.21,292.72s-398.99-67.08-398.99-292.72c0-54.63,10.69-106.76,30.03-154.42-49.56-99.67-69.19-301.19,23.81-352.54,75.04-41.44,201.39,27.16,278.17,104.92,24.03-4.46,48.79-6.8,74.1-6.8,23.34,0,46.21,1.99,68.5,5.81Z"/>
    </clipPath>
    <clipPath id="clippath-8">
      <path class="st0" d="M2462.32,942.82v99.24c0,12.6,9.61,22.81,21.46,22.81h99.76c11.85,0,21.45-10.21,21.45-22.81v-99.24h-142.67Z"/>
    </clipPath>
    <filter id="luminosity-noclip" x="2103.44" y=".03" width="1113.68" height="1279.33" color-interpolation-filters="sRGB" filterUnits="userSpaceOnUse">
      <feFlood flood-color="#fff" result="bg"/>
      <feBlend in="SourceGraphic" in2="bg"/>
    </filter>
    <linearGradient id="linear-gradient" x1="2103.44" y1="538.68" x2="2955.44" y2="538.68" gradientUnits="userSpaceOnUse">
      <stop offset="0" stop-color="#000"/>
      <stop offset=".97" stop-color="#000"/>
      <stop offset=".98" stop-color="#010101"/>
      <stop offset=".98" stop-color="#080808"/>
      <stop offset=".99" stop-color="#141414"/>
      <stop offset=".99" stop-color="#252525"/>
      <stop offset=".99" stop-color="#3b3b3b"/>
      <stop offset=".99" stop-color="#565656"/>
      <stop offset="1" stop-color="#777"/>
      <stop offset="1" stop-color="#9c9c9c"/>
      <stop offset="1" stop-color="#c7c7c7"/>
      <stop offset="1" stop-color="#f5f5f5"/>
      <stop offset="1" stop-color="#fff"/>
    </linearGradient>
    <linearGradient id="linear-gradient1" x1="2528.38" y1=".03" x2="2528.38" y2="1080.03" gradientUnits="userSpaceOnUse">
      <stop offset="0" stop-color="#000"/>
      <stop offset=".97" stop-color="#000"/>
      <stop offset=".98" stop-color="#010101"/>
      <stop offset=".98" stop-color="#080808"/>
      <stop offset=".99" stop-color="#141414"/>
      <stop offset=".99" stop-color="#252525"/>
      <stop offset=".99" stop-color="#3b3b3b"/>
      <stop offset=".99" stop-color="#565656"/>
      <stop offset="1" stop-color="#777"/>
      <stop offset="1" stop-color="#9c9c9c"/>
      <stop offset="1" stop-color="#c7c7c7"/>
      <stop offset="1" stop-color="#f5f5f5"/>
      <stop offset="1" stop-color="#fff"/>
    </linearGradient>
    <mask id="mask" x="2103.44" y=".03" width="1113.68" height="1279.33" maskUnits="userSpaceOnUse">
      <g class="st2">
        <g>
          <rect class="st8" x="2103.44" y=".03" width="1113.68" height="1279.33"/>
          <rect class="st14" x="2103.44" y=".03" width="852" height="1077.3"/>
          <rect class="st4" x="2103.44" y=".03" width="849.87" height="1080"/>
        </g>
      </g>
    </mask>
  </defs>
  <g id="player">
    <rect class="st0" x="752.41" y="276.92" width="415.13" height="526.22"/>
    <g class="st29">
      <g>
        <g>
          <path class="st0" d="M938.54,735.93l-41.41-66.38"/>
          <path class="st6" d="M897.32,665.47c1.36.12,2.25.42,3.27,1.92l41.41,66.38c2.12,3.72-3.57,9.24-6.92,4.32l-41.41-66.38c-.53-.93-.56-1.26-.61-1.86-.21-2.78,3.73-4.38,4.26-4.38Z"/>
          <path class="st0" d="M984.52,735.93l41.41-66.38"/>
          <path class="st6" d="M1026.4,665.5c1,.16,1.15.28,1.55.51,1.92,1.09,2.8,3.31,1.44,5.71l-41.41,66.38c-1.22,1.79-1.77,1.65-2.62,1.83-3.07.65-6.07-3.04-4.3-6.15l41.41-66.38c.89-1.31,2.3-2.02,3.93-1.89Z"/>
          <g>
            <path class="st7" d="M995.25,338.91c37.45-37.69,98.66-70.74,135.06-50.64,44.23,24.42,36.17,118.55,13.32,168.2,10.36,24.17,16.1,50.82,16.1,78.81,0,109.94-92.12,142.63-201.33,142.63s-194.41-32.68-194.41-142.63c0-26.62,5.21-52.02,14.63-75.24-24.15-48.56-33.71-146.75,11.6-171.77,36.56-20.19,98.12,13.23,135.54,51.12,11.71-2.18,23.77-3.31,36.1-3.31,11.37,0,22.52.97,33.38,2.83Z"/>
            <g class="st18">
              <ellipse class="st9" cx="863.79" cy="518.87" rx="102.61" ry="275.33" transform="translate(-95.14 209.33) rotate(-13.1)"/>
            </g>
          </g>
          <circle class="st11" cx="878.7" cy="480.11" r="46.59"/>
          <path class="st6" d="M794.72,433.52l85.38-83.91s-47.71-55.27-72.97-47.17c-25.26,8.09-27.04,76.34-12.41,131.08Z"/>
          <path class="st6" d="M1126.68,433.52l-85.38-83.91s47.71-55.27,72.97-47.17c25.26,8.09,27.04,76.34,12.41,131.08Z"/>
          <circle class="st11" cx="1044.81" cy="480.11" r="46.59"/>
          <circle class="st8" cx="864.09" cy="464.23" r="18.04"/>
          <circle class="st8" cx="892.69" cy="508.31" r="11.04"/>
          <path class="st6" d="M962.04,534.63c5.52,0,10.01,3.15,10.01,7.03s-4.48,9.63-10.01,9.63-10-5.76-10-9.63,4.48-7.03,10-7.03Z"/>
          <circle class="st8" cx="1065.74" cy="467.51" r="18.04" transform="translate(595.99 1532.26) rotate(-89.88)"/>
          <circle class="st8" cx="1025.38" cy="501.21" r="11.04" transform="translate(522.02 1525.54) rotate(-89.88)"/>
          <path class="st6" d="M962.49,546.68c1.81.09,2,.52,2.51.95,5.75,4.8-6.57,17.62-14.93,17.9-7.13.23-14.51-3-18.33-8.66-2.39-3.54,2.73-8.05,7.43-4.15,3.69,3,8.43,5.56,12.44,4.37,4.39-1.31,7.13-8.15,7.13-8.15.75-1.4,1.7-2.25,3.76-2.25Z"/>
          <path class="st6" d="M964.24,546.7c4.66.48,4.67,9.09,10.9,10.5,5.19,1.17,10.13-2.71,13.35-5.68,0,0,7.2-2.17,6.76,3.39-.04.56-.21,1.11-.47,1.6-4.29,8.03-19.77,12.13-27.88,5.45-2.98-2.45-5.05-5.8-6.6-9.29,0,0-.63-6.2,3.94-5.97Z"/>
          <g>
            <path class="st3" d="M927.28,738.06v46.58c0,6.14,4.68,11.11,10.45,11.11h48.61c5.77,0,10.45-4.98,10.45-11.11v-46.58h-69.51Z"/>
            <g class="st21">
              <g>
                <g class="st27">
                  <path d="M880.14,756.59l7.67-8.15,7.67,8.15-7.67,8.15-7.67-8.15ZM889.29,766.31l7.67-8.15,7.67,8.15-7.67,8.15-7.67-8.15ZM898.44,776.03l7.67-8.15,7.67,8.15-7.67,8.15-7.67-8.15ZM907.58,785.75l7.67-8.15,7.67,8.15-7.67,8.15-7.67-8.15ZM916.73,795.47l7.67-8.15,7.67,8.15-7.67,8.15-7.67-8.15ZM925.88,805.2l7.67-8.15,7.67,8.15-7.67,8.15-7.67-8.15ZM935.02,814.92l7.67-8.15,7.67,8.15-7.67,8.15-7.67-8.15ZM944.17,824.64l7.67-8.15,7.67,8.15-7.67,8.15-7.67-8.15ZM953.32,834.36l7.67-8.15,7.67,8.15-7.67,8.15-7.67-8.15ZM970.13,832.79l-7.67-8.15,7.67-8.15,7.67,8.15-7.67,8.15ZM979.28,823.07l-7.67-8.15,7.67-8.15,7.67,8.15-7.67,8.15ZM988.42,813.35l-7.67-8.15,7.67-8.15,7.67,8.15-7.67,8.15ZM997.57,803.62l-7.67-8.15,7.67-8.15,7.67,8.15-7.67,8.15ZM1006.72,793.9l-7.67-8.15,7.67-8.15,7.67,8.15-7.67,8.15ZM1015.86,784.18l-7.67-8.15,7.67-8.15,7.67,8.15-7.67,8.15ZM1025.01,774.46l-7.67-8.15,7.67-8.15,7.67,8.15-7.67,8.15ZM1034.16,764.74l-7.67-8.15,7.67-8.15,7.67,8.15-7.67,8.15ZM1032.68,746.87l-7.67,8.15-7.67-8.15,7.67-8.15,7.67,8.15ZM1023.53,737.14l-7.67,8.15-7.67-8.15,7.67-8.15,7.67,8.15ZM1014.39,727.42l-7.67,8.15-7.67-8.15,7.67-8.15,7.67,8.15ZM1005.24,717.7l-7.67,8.15-7.67-8.15,7.67-8.15,7.67,8.15ZM996.09,707.98l-7.67,8.15-7.67-8.15,7.67-8.15,7.67,8.15ZM986.95,698.26l-7.67,8.15-7.67-8.15,7.67-8.15,7.67,8.15ZM977.8,688.53l-7.67,8.15-7.67-8.15,7.67-8.15,7.67,8.15ZM968.65,678.81l-7.67,8.15-7.67-8.15,7.67-8.15,7.67,8.15ZM951.84,680.38l7.67,8.15-7.67,8.15-7.67-8.15,7.67-8.15ZM942.69,690.11l7.67,8.15-7.67,8.15-7.67-8.15,7.67-8.15ZM933.54,699.83l7.67,8.15-7.67,8.15-7.67-8.15,7.67-8.15ZM924.4,709.55l7.67,8.15-7.67,8.15-7.67-8.15,7.67-8.15ZM915.25,719.27l7.67,8.15-7.67,8.15-7.67-8.15,7.67-8.15ZM906.1,728.99l7.67,8.15-7.67,8.15-7.67-8.15,7.67-8.15ZM906.1,764.74l-7.67-8.15,7.67-8.15,7.67,8.15-7.67,8.15ZM915.25,774.46l-7.67-8.15,7.67-8.15,7.67,8.15-7.67,8.15ZM924.4,784.18l-7.67-8.15,7.67-8.15,7.67,8.15-7.67,8.15ZM933.54,793.9l-7.67-8.15,7.67-8.15,7.67,8.15-7.67,8.15ZM942.69,803.62l-7.67-8.15,7.67-8.15,7.67,8.15-7.67,8.15ZM951.84,813.35l-7.67-8.15,7.67-8.15,7.67,8.15-7.67,8.15ZM968.65,814.92l-7.67,8.15-7.67-8.15,7.67-8.15,7.67,8.15ZM977.8,805.2l-7.67,8.15-7.67-8.15,7.67-8.15,7.67,8.15ZM986.95,795.47l-7.67,8.15-7.67-8.15,7.67-8.15,7.67,8.15ZM996.09,785.75l-7.67,8.15-7.67-8.15,7.67-8.15,7.67,8.15ZM1005.24,776.03l-7.67,8.15-7.67-8.15,7.67-8.15,7.67,8.15ZM1014.39,766.31l-7.67,8.15-7.67-8.15,7.67-8.15,7.67,8.15ZM1015.86,748.44l7.67,8.15-7.67,8.15-7.67-8.15,7.67-8.15ZM1006.72,738.71l7.67,8.15-7.67,8.15-7.67-8.15,7.67-8.15ZM997.57,728.99l7.67,8.15-7.67,8.15-7.67-8.15,7.67-8.15ZM988.42,719.27l7.67,8.15-7.67,8.15-7.67-8.15,7.67-8.15ZM979.28,709.55l7.67,8.15-7.67,8.15-7.67-8.15,7.67-8.15ZM970.13,699.83l7.67,8.15-7.67,8.15-7.67-8.15,7.67-8.15ZM953.32,698.26l7.67-8.15,7.67,8.15-7.67,8.15-7.67-8.15ZM944.17,707.98l7.67-8.15,7.67,8.15-7.67,8.15-7.67-8.15ZM935.02,717.7l7.67-8.15,7.67,8.15-7.67,8.15-7.67-8.15ZM925.88,727.42l7.67-8.15,7.67,8.15-7.67,8.15-7.67-8.15ZM916.73,737.14l7.67-8.15,7.67,8.15-7.67,8.15-7.67-8.15ZM915.25,755.02l-7.67-8.15,7.67-8.15,7.67,8.15-7.67,8.15ZM924.4,764.74l-7.67-8.15,7.67-8.15,7.67,8.15-7.67,8.15ZM933.54,774.46l-7.67-8.15,7.67-8.15,7.67,8.15-7.67,8.15ZM942.69,784.18l-7.67-8.15,7.67-8.15,7.67,8.15-7.67,8.15ZM951.84,793.9l-7.67-8.15,7.67-8.15,7.67,8.15-7.67,8.15ZM968.65,795.47l-7.67,8.15-7.67-8.15,7.67-8.15,7.67,8.15ZM977.8,785.75l-7.67,8.15-7.67-8.15,7.67-8.15,7.67,8.15ZM986.95,776.03l-7.67,8.15-7.67-8.15,7.67-8.15,7.67,8.15ZM996.09,766.31l-7.67,8.15-7.67-8.15,7.67-8.15,7.67,8.15ZM997.57,748.44l7.67,8.15-7.67,8.15-7.67-8.15,7.67-8.15ZM988.42,738.71l7.67,8.15-7.67,8.15-7.67-8.15,7.67-8.15ZM979.28,728.99l7.67,8.15-7.67,8.15-7.67-8.15,7.67-8.15ZM970.13,719.27l7.67,8.15-7.67,8.15-7.67-8.15,7.67-8.15ZM953.32,717.7l7.67-8.15,7.67,8.15-7.67,8.15-7.67-8.15ZM944.17,727.42l7.67-8.15,7.67,8.15-7.67,8.15-7.67-8.15ZM935.02,737.14l7.67-8.15,7.67,8.15-7.67,8.15-7.67-8.15ZM933.54,755.02l-7.67-8.15,7.67-8.15,7.67,8.15-7.67,8.15ZM942.69,764.74l-7.67-8.15,7.67-8.15,7.67,8.15-7.67,8.15ZM951.84,774.46l-7.67-8.15,7.67-8.15,7.67,8.15-7.67,8.15ZM968.65,776.03l-7.67,8.15-7.67-8.15,7.67-8.15,7.67,8.15ZM977.8,766.31l-7.67,8.15-7.67-8.15,7.67-8.15,7.67,8.15ZM979.28,748.44l7.67,8.15-7.67,8.15-7.67-8.15,7.67-8.15ZM970.13,738.71l7.67,8.15-7.67,8.15-7.67-8.15,7.67-8.15ZM953.32,737.14l7.67-8.15,7.67,8.15-7.67,8.15-7.67-8.15ZM960.98,748.44l7.67,8.15-7.67,8.15-7.67-8.15,7.67-8.15ZM951.84,755.02l-7.67-8.15,7.67-8.15,7.67,8.15-7.67,8.15ZM896.96,738.71l7.67,8.15-7.67,8.15-7.67-8.15,7.67-8.15ZM877.19,756.59l-3.84,4.08,1.48,1.57,3.84-4.08,7.67,8.15-3.83,4.07,1.48,1.57,3.83-4.07,7.67,8.15-3.84,4.08,1.48,1.57,3.84-4.08,7.67,8.15-3.83,4.07,1.48,1.57,3.83-4.07,7.67,8.15-3.84,4.08,1.48,1.57,3.84-4.08,7.67,8.15-3.83,4.07,1.48,1.57,3.83-4.07,7.67,8.15-3.84,4.08,1.48,1.57,3.84-4.08,7.67,8.15-3.83,4.07,1.48,1.57,3.83-4.07,7.67,8.15-3.84,4.08,1.48,1.57,3.84-4.07,7.67,8.15-3.83,4.07,1.48,1.57,3.83-4.07,3.83,4.07,1.48-1.57-3.83-4.07,7.67-8.15,3.84,4.07,1.48-1.57-3.83-4.08,7.67-8.15,3.84,4.07,1.48-1.57-3.83-4.07,7.67-8.15,3.84,4.08,1.48-1.57-3.83-4.08,7.67-8.15,3.84,4.07,1.48-1.57-3.83-4.07,7.67-8.15,3.83,4.08,1.48-1.57-3.83-4.08,7.67-8.15,3.84,4.07,1.48-1.57-3.83-4.07,7.67-8.15,3.83,4.08,1.48-1.57-3.83-4.08,7.67-8.15,3.84,4.07,1.48-1.57-3.83-4.07,7.67-8.15,3.83,4.08,1.48-1.57-3.84-4.07,3.84-4.08-1.48-1.57-3.83,4.08-7.67-8.15,3.83-4.07-1.48-1.57-3.84,4.07-7.67-8.15,3.83-4.08-1.48-1.57-3.83,4.08-7.67-8.15,3.83-4.07-1.48-1.57-3.84,4.07-7.67-8.15,3.83-4.08-1.48-1.57-3.83,4.07-7.67-8.15,3.83-4.07-1.48-1.57-3.84,4.07-7.67-8.15,3.83-4.08-1.48-1.57-3.84,4.07-7.67-8.15,3.83-4.07-1.48-1.57-3.84,4.07-7.67-8.15,3.83-4.07-1.48-1.57-3.84,4.07-7.67-8.15,3.83-4.07-1.48-1.57-3.83,4.07-3.83-4.07-1.48,1.57,3.83,4.07-7.67,8.15-3.84-4.07-1.48,1.57,3.84,4.07-7.67,8.15-3.83-4.07-1.48,1.57,3.83,4.07-7.67,8.15-3.84-4.07-1.48,1.57,3.84,4.08-7.67,8.15-3.83-4.07-1.48,1.57,3.83,4.07-7.67,8.15-3.84-4.07-1.48,1.57,3.84,4.08-7.67,8.15-3.83-4.07-1.48,1.57,3.83,4.07-7.67,8.15-3.84-4.07-1.48,1.57,3.84,4.08-7.67,8.15-3.83-4.07-1.48,1.57,3.83,4.07-7.67,8.15-3.84-4.08-1.48,1.57,3.84,4.08Z"/>
                </g>
                <path class="st13" d="M881.19,754.36l7.67-8.15,7.67,8.15-7.67,8.15-7.67-8.15ZM890.33,764.08l7.67-8.15,7.67,8.15-7.67,8.15-7.67-8.15ZM899.48,773.81l7.67-8.15,7.67,8.15-7.67,8.15-7.67-8.15ZM908.63,783.53l7.67-8.15,7.67,8.15-7.67,8.15-7.67-8.15ZM917.77,793.25l7.67-8.15,7.67,8.15-7.67,8.15-7.67-8.15ZM926.92,802.97l7.67-8.15,7.67,8.15-7.67,8.15-7.67-8.15ZM936.07,812.69l7.67-8.15,7.67,8.15-7.67,8.15-7.67-8.15ZM945.21,822.42l7.67-8.15,7.67,8.15-7.67,8.15-7.67-8.15ZM954.36,832.14l7.67-8.15,7.67,8.15-7.67,8.15-7.67-8.15ZM971.18,830.56l-7.67-8.15,7.67-8.15,7.67,8.15-7.67,8.15ZM980.32,820.84l-7.67-8.15,7.67-8.15,7.67,8.15-7.67,8.15ZM989.47,811.12l-7.67-8.15,7.67-8.15,7.67,8.15-7.67,8.15ZM998.62,801.4l-7.67-8.15,7.67-8.15,7.67,8.15-7.67,8.15ZM1007.76,791.68l-7.67-8.15,7.67-8.15,7.67,8.15-7.67,8.15ZM1016.91,781.95l-7.67-8.15,7.67-8.15,7.67,8.15-7.67,8.15ZM1026.06,772.24l-7.67-8.15,7.67-8.15,7.67,8.15-7.67,8.15ZM1035.2,762.51l-7.67-8.15,7.67-8.15,7.67,8.15-7.67,8.15ZM1033.73,744.64l-7.67,8.15-7.67-8.15,7.67-8.15,7.67,8.15ZM1024.58,734.92l-7.67,8.15-7.67-8.15,7.67-8.15,7.67,8.15ZM1015.43,725.2l-7.67,8.15-7.67-8.15,7.67-8.15,7.67,8.15ZM1006.29,715.47l-7.67,8.15-7.67-8.15,7.67-8.15,7.67,8.15ZM997.14,705.75l-7.67,8.15-7.67-8.15,7.67-8.15,7.67,8.15ZM987.99,696.03l-7.67,8.15-7.67-8.15,7.67-8.15,7.67,8.15ZM978.84,686.31l-7.67,8.15-7.67-8.15,7.67-8.15,7.67,8.15ZM969.7,676.59l-7.67,8.15-7.67-8.15,7.67-8.15,7.67,8.15ZM952.88,678.16l7.67,8.15-7.67,8.15-7.67-8.15,7.67-8.15ZM943.73,687.88l7.67,8.15-7.67,8.15-7.67-8.15,7.67-8.15ZM934.59,697.6l7.67,8.15-7.67,8.15-7.67-8.15,7.67-8.15ZM925.44,707.33l7.67,8.15-7.67,8.15-7.67-8.15,7.67-8.15ZM916.3,717.05l7.67,8.15-7.67,8.15-7.67-8.15,7.67-8.15ZM907.15,726.77l7.67,8.15-7.67,8.15-7.67-8.15,7.67-8.15ZM907.15,762.51l-7.67-8.15,7.67-8.15,7.67,8.15-7.67,8.15ZM916.3,772.24l-7.67-8.15,7.67-8.15,7.67,8.15-7.67,8.15ZM925.44,781.95l-7.67-8.15,7.67-8.15,7.67,8.15-7.67,8.15ZM934.59,791.68l-7.67-8.15,7.67-8.15,7.67,8.15-7.67,8.15ZM943.73,801.4l-7.67-8.15,7.67-8.15,7.67,8.15-7.67,8.15ZM952.88,811.12l-7.67-8.15,7.67-8.15,7.67,8.15-7.67,8.15ZM969.7,812.69l-7.67,8.15-7.67-8.15,7.67-8.15,7.67,8.15ZM978.84,802.97l-7.67,8.15-7.67-8.15,7.67-8.15,7.67,8.15ZM987.99,793.25l-7.67,8.15-7.67-8.15,7.67-8.15,7.67,8.15ZM997.14,783.53l-7.67,8.15-7.67-8.15,7.67-8.15,7.67,8.15ZM1006.29,773.81l-7.67,8.15-7.67-8.15,7.67-8.15,7.67,8.15ZM1015.43,764.08l-7.67,8.15-7.67-8.15,7.67-8.15,7.67,8.15ZM1016.91,746.21l7.67,8.15-7.67,8.15-7.67-8.15,7.67-8.15ZM1007.76,736.49l7.67,8.15-7.67,8.15-7.67-8.15,7.67-8.15ZM998.62,726.77l7.67,8.15-7.67,8.15-7.67-8.15,7.67-8.15ZM989.47,717.05l7.67,8.15-7.67,8.15-7.67-8.15,7.67-8.15ZM980.32,707.33l7.67,8.15-7.67,8.15-7.67-8.15,7.67-8.15ZM971.18,697.6l7.67,8.15-7.67,8.15-7.67-8.15,7.67-8.15ZM954.36,696.03l7.67-8.15,7.67,8.15-7.67,8.15-7.67-8.15ZM945.21,705.75l7.67-8.15,7.67,8.15-7.67,8.15-7.67-8.15ZM936.07,715.47l7.67-8.15,7.67,8.15-7.67,8.15-7.67-8.15ZM926.92,725.2l7.67-8.15,7.67,8.15-7.67,8.15-7.67-8.15ZM917.77,734.92l7.67-8.15,7.67,8.15-7.67,8.15-7.67-8.15ZM916.3,752.79l-7.67-8.15,7.67-8.15,7.67,8.15-7.67,8.15ZM925.44,762.51l-7.67-8.15,7.67-8.15,7.67,8.15-7.67,8.15ZM934.59,772.24l-7.67-8.15,7.67-8.15,7.67,8.15-7.67,8.15ZM943.73,781.95l-7.67-8.15,7.67-8.15,7.67,8.15-7.67,8.15ZM952.88,791.68l-7.67-8.15,7.67-8.15,7.67,8.15-7.67,8.15ZM969.7,793.25l-7.67,8.15-7.67-8.15,7.67-8.15,7.67,8.15ZM978.84,783.53l-7.67,8.15-7.67-8.15,7.67-8.15,7.67,8.15ZM987.99,773.81l-7.67,8.15-7.67-8.15,7.67-8.15,7.67,8.15ZM997.14,764.08l-7.67,8.15-7.67-8.15,7.67-8.15,7.67,8.15ZM998.62,746.21l7.67,8.15-7.67,8.15-7.67-8.15,7.67-8.15ZM989.47,736.49l7.67,8.15-7.67,8.15-7.67-8.15,7.67-8.15ZM980.32,726.77l7.67,8.15-7.67,8.15-7.67-8.15,7.67-8.15ZM971.18,717.05l7.67,8.15-7.67,8.15-7.67-8.15,7.67-8.15ZM954.36,715.47l7.67-8.15,7.67,8.15-7.67,8.15-7.67-8.15ZM945.21,725.2l7.67-8.15,7.67,8.15-7.67,8.15-7.67-8.15ZM936.07,734.92l7.67-8.15,7.67,8.15-7.67,8.15-7.67-8.15ZM934.59,752.79l-7.67-8.15,7.67-8.15,7.67,8.15-7.67,8.15ZM943.73,762.51l-7.67-8.15,7.67-8.15,7.67,8.15-7.67,8.15ZM952.88,772.24l-7.67-8.15,7.67-8.15,7.67,8.15-7.67,8.15ZM969.7,773.81l-7.67,8.15-7.67-8.15,7.67-8.15,7.67,8.15ZM978.84,764.08l-7.67,8.15-7.67-8.15,7.67-8.15,7.67,8.15ZM980.32,746.21l7.67,8.15-7.67,8.15-7.67-8.15,7.67-8.15ZM971.18,736.49l7.67,8.15-7.67,8.15-7.67-8.15,7.67-8.15ZM954.36,734.92l7.67-8.15,7.67,8.15-7.67,8.15-7.67-8.15ZM962.03,746.21l7.67,8.15-7.67,8.15-7.67-8.15,7.67-8.15ZM952.88,752.79l-7.67-8.15,7.67-8.15,7.67,8.15-7.67,8.15ZM898,736.49l7.67,8.15-7.67,8.15-7.67-8.15,7.67-8.15ZM878.23,754.36l-3.84,4.07,1.48,1.57,3.83-4.08,7.67,8.15-3.83,4.07,1.48,1.57,3.83-4.07,7.67,8.15-3.83,4.07,1.48,1.57,3.83-4.08,7.67,8.15-3.83,4.07,1.48,1.57,3.83-4.07,7.67,8.15-3.83,4.08,1.48,1.57,3.84-4.08,7.67,8.15-3.83,4.07,1.48,1.57,3.83-4.07,7.67,8.15-3.83,4.08,1.48,1.57,3.84-4.08,7.67,8.15-3.83,4.07,1.48,1.57,3.83-4.07,7.67,8.15-3.84,4.08,1.48,1.57,3.84-4.08,7.67,8.15-3.83,4.07,1.48,1.57,3.83-4.07,3.84,4.07,1.48-1.57-3.83-4.07,7.67-8.15,3.84,4.08,1.48-1.57-3.84-4.08,7.67-8.15,3.84,4.07,1.48-1.57-3.83-4.07,7.67-8.15,3.84,4.08,1.48-1.57-3.84-4.08,7.67-8.15,3.83,4.07,1.48-1.57-3.83-4.07,7.67-8.15,3.84,4.08,1.48-1.57-3.84-4.08,7.67-8.15,3.83,4.07,1.48-1.57-3.83-4.07,7.67-8.15,3.84,4.08,1.48-1.57-3.84-4.07,7.67-8.15,3.83,4.07,1.48-1.57-3.83-4.07,7.67-8.15,3.84,4.08,1.48-1.57-3.83-4.07,3.83-4.08-1.48-1.57-3.84,4.07-7.67-8.15,3.83-4.08-1.48-1.57-3.83,4.07-7.67-8.15,3.84-4.08-1.48-1.57-3.84,4.07-7.67-8.15,3.83-4.07-1.48-1.57-3.83,4.07-7.67-8.15,3.84-4.07-1.48-1.57-3.84,4.07-7.67-8.15,3.83-4.07-1.48-1.57-3.83,4.07-7.67-8.15,3.84-4.07-1.48-1.57-3.84,4.08-7.67-8.15,3.83-4.07-1.48-1.57-3.84,4.07-7.67-8.15,3.84-4.07-1.48-1.57-3.84,4.08-7.67-8.15,3.83-4.07-1.48-1.57-3.84,4.07-3.83-4.07-1.48,1.57,3.83,4.07-7.67,8.15-3.84-4.08-1.48,1.57,3.84,4.07-7.67,8.15-3.83-4.07-1.48,1.57,3.83,4.07-7.67,8.15-3.84-4.08-1.48,1.57,3.83,4.07-7.67,8.15-3.83-4.07-1.48,1.57,3.83,4.07-7.67,8.15-3.84-4.07-1.48,1.57,3.83,4.07-7.67,8.15-3.83-4.07-1.48,1.57,3.83,4.07-7.67,8.15-3.83-4.07-1.48,1.57,3.83,4.08-7.67,8.15-3.83-4.07-1.48,1.57,3.83,4.08-7.67,8.15-3.83-4.07-1.48,1.57,3.84,4.08Z"/>
              </g>
            </g>
            <g class="st27">
              <path d="M988.87,792.73c-12.99,0-26.64-6.01-35.83-15.77s-15.41-24.67-14.84-38.08c.03-.77.1-1.53.16-2.3h-11.08v48.06c0,6.14,4.68,11.11,10.45,11.11h48.61c2.89,0,5.51-1.25,7.4-3.27-1.6.16-3.22.25-4.87.25"/>
            </g>
            <path class="st8" d="M962.8,741.95v.02c.18.19,1.97,2.19,4.93,4.11,2.96,1.93,7.07,3.78,11.92,3.78,5,0,10.84-1.94,17.23-7.99.43-.41,1.09-.37,1.48.09.39.46.35,1.16-.08,1.57-6.68,6.36-13.09,8.56-18.62,8.55-5.53,0-10.12-2.17-13.31-4.31-3.2-2.14-5.03-4.28-5.07-4.33-.39-.45-.36-1.16.07-1.57.43-.41,1.09-.38,1.48.07"/>
            <path class="st8" d="M962.8,743.44s-1.87,2.18-5.07,4.33c-3.2,2.14-7.79,4.31-13.31,4.31-5.53,0-11.94-2.2-18.62-8.56-.43-.41-.47-1.11-.08-1.57.39-.46,1.05-.5,1.48-.09,6.39,6.05,12.23,7.98,17.23,7.99,5,0,9.22-1.97,12.2-3.97,1.49-.99,2.66-1.99,3.45-2.74.4-.37.7-.68.9-.89.1-.11.17-.19.22-.24l.06-.06v-.02c.4-.45,1.06-.49,1.49-.07.43.41.46,1.12.07,1.57"/>
            <g class="st27">
              <path d="M925.79,742.41c6.68,6.36,13.1,8.56,18.62,8.55,5.53,0,10.12-2.17,13.31-4.31,2.01-1.34,3.48-2.69,4.3-3.51.83.82,2.29,2.17,4.3,3.51,3.2,2.14,7.79,4.3,13.31,4.31,5.53,0,11.94-2.2,18.62-8.55.08-.08.13-.17.19-.27.25.45.19,1.02-.19,1.38-6.68,6.35-13.09,8.56-18.62,8.55-5.53,0-10.12-2.17-13.31-4.31-2.01-1.35-3.47-2.69-4.3-3.51-.82.83-2.29,2.17-4.3,3.51-3.2,2.14-7.78,4.3-13.31,4.31-5.53,0-11.94-2.2-18.62-8.55-.38-.36-.43-.93-.19-1.38.05.09.11.19.19.27"/>
            </g>
            <path class="st11" d="M918.35,755.01c0,4.16,3.18,7.54,7.1,7.54s7.09-3.38,7.09-7.54-7.09-14.13-7.09-14.13c0,0-7.1,9.96-7.1,14.13"/>
            <g class="st27">
              <path d="M925.44,740.89s.11.16.31.44c-2.1,3.25-5.31,8.66-5.31,11.47,0,4.16,3.18,7.54,7.09,7.54,1.43,0,2.75-.45,3.86-1.22-1.26,2.07-3.46,3.44-5.95,3.44-3.92,0-7.1-3.38-7.1-7.54s7.1-14.13,7.1-14.13"/>
            </g>
            <g class="st27">
              <path class="st8" d="M927.32,751.74c.68,2.08,1.87,3.52,2.66,3.23.79-.3.89-2.21.21-4.29-.68-2.08-1.87-3.52-2.66-3.23-.79.3-.89,2.21-.21,4.29"/>
            </g>
            <path class="st11" d="M954.95,755.01c0,4.16,3.18,7.54,7.1,7.54s7.09-3.38,7.09-7.54-7.09-14.13-7.09-14.13c0,0-7.1,9.96-7.1,14.13"/>
            <g class="st27">
              <path d="M962.03,740.89s.11.16.31.44c-2.1,3.25-5.31,8.66-5.31,11.47,0,4.16,3.18,7.54,7.1,7.54,1.42,0,2.75-.45,3.86-1.22-1.26,2.07-3.45,3.44-5.95,3.44-3.92,0-7.1-3.38-7.1-7.54s7.1-14.13,7.1-14.13"/>
            </g>
            <g class="st27">
              <path class="st8" d="M963.91,751.74c.68,2.08,1.87,3.52,2.66,3.23.79-.3.88-2.21.2-4.29s-1.87-3.52-2.66-3.23c-.79.3-.89,2.22-.2,4.29"/>
            </g>
            <path class="st11" d="M991.52,755.01c0,4.16,3.18,7.54,7.1,7.54s7.09-3.38,7.09-7.54-7.09-14.13-7.09-14.13c0,0-7.1,9.96-7.1,14.13"/>
            <g class="st27">
              <path d="M998.62,740.89s.11.16.3.44c-2.1,3.25-5.31,8.66-5.31,11.47,0,4.16,3.18,7.54,7.09,7.54,1.42,0,2.75-.45,3.86-1.22-1.26,2.07-3.45,3.44-5.95,3.44-3.92,0-7.1-3.38-7.1-7.54s7.1-14.13,7.1-14.13"/>
            </g>
            <g class="st27">
              <path class="st8" d="M1000.5,751.74c.68,2.08,1.87,3.52,2.66,3.23.79-.3.88-2.21.2-4.29s-1.87-3.52-2.66-3.23c-.79.3-.89,2.22-.2,4.29"/>
            </g>
            <rect class="st15" x="924.14" y="734.36" width="75.79" height="8.33"/>
            <g class="st27">
              <path d="M930.93,734.36v6.39h68.99v1.95h-75.79v-8.33h6.8Z"/>
            </g>
          </g>
        </g>
        <path class="st6" d="M816.23,276.95c27.78.25,54.1,13.31,77.34,29.03,11.99,8.12,23.26,17.32,33.61,27.46,0,0,15.66-2.22,29.92-2.55,11.98-.28,23.97.53,35.86,2.34,0,0,2.53-1.96,5.03-4.29,24.91-23.05,54.65-42.43,86.77-49.64,21.51-4.82,45.99-1.52,60.85,14.45,20.87,22.43,23.88,57.89,20.9,92.23-2.09,24.15-7.4,48.11-17.06,70.25,0,0,6.06,15.52,9.64,30.23,12.54,51.43,6.41,109.45-30.97,146.35-33.39,32.96-83.07,44.77-129.32,48.72-39.68,3.39-79.95,2.66-119.06-5.52-42.32-8.86-84.22-29.94-104.93-68.71-23.54-44.04-20.25-100.01-1.98-146.98,0,0-.87-1.94-1.81-4.07-18.23-41.76-24.61-91.24-12.37-132.39,7.32-24.67,26.71-46.05,55.32-46.88.74-.02,1.51-.02,2.25-.02ZM815.21,287.44c-14.74.2-29.14,7.27-37.36,19.36-19.26,28.35-16.76,68.05-9.97,103.01,3.15,16.15,7.76,32.03,14.88,46.81l.87,1.93c.89,4.3.53,1.54-1.84,7.74-20.62,54.95-18.96,122.14,21.54,161.71,32.21,31.47,80.55,40.85,124.13,43.71,46.52,3.05,94.05,1.12,137.88-13.83,31.75-10.83,61.42-31.14,76.35-61.55,20.6-42.01,15.66-94.28-2.92-137.78,0,0-.89-1.95,1.59-7.69,17.52-41.15,23.81-90.61,9.65-129.32-5.44-14.86-16.3-28.41-31.9-32.47-23.77-6.18-49.78,4.43-72.37,17.48-16.76,9.68-32.21,21.59-45.94,35.21l-1.51,1.41c-2.76,1.69.57,1.59-7.94.29-21.19-3.11-42.8-2.71-63.69,1.11,0,0-3.72-.57-6.84-3.63-28.61-28.06-64.57-52.84-103.16-53.48-.5,0-.97,0-1.47,0Z"/>
      </g>
    </g>
  </g>
  <g id="player1" data-name="player">
    <rect class="st0" x="2103.44" y=".03" width="852" height="1080"/>
    <g class="st19">
      <g>
        <g>
          <path class="st0" d="M2485.44,942.1l-84.99-136.24"/>
          <path class="st6" d="M2400.84,797.49c2.79.24,4.62.86,6.72,3.93l84.99,136.24c4.34,7.63-7.33,18.96-14.21,8.86l-84.99-136.24c-1.09-1.91-1.16-2.58-1.25-3.81-.43-5.7,7.65-8.99,8.74-8.99Z"/>
          <path class="st0" d="M2579.82,942.1l84.99-136.24"/>
          <path class="st6" d="M2665.76,797.54c2.05.32,2.36.57,3.18,1.04,3.94,2.24,5.76,6.8,2.96,11.71l-84.99,136.24c-2.51,3.68-3.64,3.4-5.38,3.76-6.3,1.33-12.46-6.24-8.83-12.63l84.99-136.24c1.83-2.69,4.72-4.14,8.06-3.89Z"/>
          <g>
            <path class="st7" d="M2601.83,127.27c76.86-77.35,202.48-145.19,277.19-103.93,90.79,50.12,74.24,243.31,27.34,345.22,21.27,49.61,33.05,104.3,33.05,161.74,0,225.64-189.06,292.72-413.21,292.72s-398.99-67.08-398.99-292.72c0-54.63,10.69-106.76,30.03-154.42-49.56-99.67-69.19-301.19,23.81-352.54,75.04-41.44,201.39,27.16,278.17,104.92,24.03-4.46,48.79-6.8,74.1-6.8,23.34,0,46.21,1.99,68.5,5.81Z"/>
            <g class="st20">
              <ellipse class="st9" cx="2332.02" cy="496.6" rx="210.6" ry="565.09" transform="translate(-51.86 541.6) rotate(-13.1)"/>
            </g>
          </g>
          <circle class="st11" cx="2362.63" cy="417.06" r="95.62"/>
          <path class="st6" d="M2190.27,321.44l175.24-172.21s-97.92-113.43-149.76-96.81c-51.84,16.61-55.5,156.68-25.48,269.02Z"/>
          <path class="st6" d="M2871.58,321.44l-175.24-172.21s97.92-113.43,149.76-96.81c51.84,16.61,55.5,156.68,25.48,269.02Z"/>
          <circle class="st11" cx="2703.54" cy="417.06" r="95.62"/>
          <circle class="st8" cx="2332.65" cy="384.47" r="37.03"/>
          <circle class="st8" cx="2391.35" cy="474.94" r="22.65"/>
          <path class="st6" d="M2533.68,528.96c11.33,0,20.54,6.46,20.54,14.42s-9.2,19.77-20.54,19.77-20.53-11.81-20.53-19.77,9.2-14.42,20.53-14.42Z"/>
          <circle class="st8" cx="2746.5" cy="391.2" r="37.03" transform="translate(2349.53 3136.87) rotate(-89.88)"/>
          <circle class="st8" cx="2663.68" cy="460.37" r="22.65" transform="translate(2197.72 3123.08) rotate(-89.88)"/>
          <path class="st6" d="M2534.61,553.69c3.7.19,4.1,1.06,5.15,1.94,11.8,9.85-13.49,36.17-30.64,36.73-14.63.47-29.78-6.16-37.62-17.77-4.9-7.27,5.6-16.52,15.24-8.52,7.58,6.16,17.31,11.42,25.53,8.97,9.01-2.69,14.62-16.72,14.62-16.72,1.54-2.88,3.48-4.62,7.71-4.62Z"/>
          <path class="st6" d="M2538.18,553.71c9.56.99,9.58,18.66,22.38,21.56,10.64,2.41,20.8-5.56,27.4-11.66,0,0,14.77-4.45,13.87,6.96-.09,1.15-.42,2.27-.96,3.29-8.81,16.49-40.58,24.9-57.22,11.18-6.11-5.04-10.35-11.91-13.55-19.07,0,0-1.28-12.73,8.08-12.25Z"/>
          <g>
            <path class="st3" d="M2462.33,946.47v95.59c0,12.59,9.61,22.81,21.45,22.81h99.76c11.85,0,21.45-10.21,21.45-22.81v-95.59h-142.67Z"/>
            <g class="st25">
              <g>
                <g class="st27">
                  <path d="M2365.59,984.49l15.74-16.72,15.74,16.72-15.74,16.72-15.74-16.72ZM2384.36,1004.44l15.74-16.73,15.74,16.73-15.74,16.73-15.74-16.73ZM2403.14,1024.39l15.74-16.72,15.74,16.72-15.74,16.72-15.74-16.72ZM2421.91,1044.35l15.74-16.73,15.74,16.73-15.74,16.72-15.74-16.73ZM2440.68,1064.3l15.74-16.72,15.74,16.72-15.74,16.72-15.74-16.72ZM2459.46,1084.25l15.74-16.73,15.74,16.73-15.74,16.72-15.74-16.72ZM2478.22,1104.2l15.74-16.72,15.74,16.72-15.74,16.72-15.74-16.72ZM2497,1124.16l15.74-16.73,15.74,16.73-15.74,16.72-15.74-16.72ZM2515.77,1144.11l15.74-16.72,15.74,16.72-15.74,16.73-15.74-16.73ZM2550.28,1140.88l-15.74-16.72,15.74-16.73,15.74,16.73-15.74,16.72ZM2569.05,1120.93l-15.74-16.72,15.74-16.72,15.74,16.72-15.74,16.72ZM2587.83,1100.98l-15.74-16.72,15.74-16.73,15.74,16.73-15.74,16.72ZM2606.6,1081.02l-15.74-16.72,15.74-16.72,15.74,16.72-15.74,16.72ZM2625.38,1061.07l-15.74-16.72,15.74-16.73,15.74,16.73-15.74,16.72ZM2644.14,1041.12l-15.74-16.72,15.74-16.72,15.74,16.72-15.74,16.72ZM2662.92,1021.17l-15.74-16.73,15.74-16.73,15.74,16.73-15.74,16.73ZM2681.69,1001.21l-15.74-16.72,15.74-16.72,15.74,16.72-15.74,16.72ZM2678.65,964.54l-15.74,16.73-15.74-16.73,15.74-16.73,15.74,16.73ZM2659.88,944.58l-15.74,16.72-15.74-16.72,15.74-16.73,15.74,16.73ZM2641.11,924.63l-15.74,16.73-15.74-16.73,15.74-16.72,15.74,16.72ZM2622.34,904.68l-15.74,16.72-15.74-16.72,15.74-16.73,15.74,16.73ZM2603.57,884.72l-15.74,16.73-15.74-16.73,15.74-16.72,15.74,16.72ZM2584.79,864.77l-15.74,16.72-15.74-16.72,15.74-16.73,15.74,16.73ZM2566.02,844.82l-15.74,16.73-15.74-16.73,15.74-16.72,15.74,16.72ZM2547.25,824.87l-15.74,16.73-15.74-16.73,15.74-16.72,15.74,16.72ZM2512.74,828.09l15.74,16.72-15.74,16.73-15.74-16.73,15.74-16.72ZM2493.96,848.05l15.74,16.73-15.74,16.72-15.74-16.72,15.74-16.73ZM2475.19,868l15.74,16.72-15.74,16.73-15.74-16.73,15.74-16.72ZM2456.42,887.95l15.74,16.73-15.74,16.72-15.74-16.72,15.74-16.73ZM2437.65,907.9l15.74,16.72-15.74,16.73-15.74-16.73,15.74-16.72ZM2418.87,927.85l15.74,16.73-15.74,16.72-15.74-16.72,15.74-16.73ZM2418.87,1001.21l-15.74-16.72,15.74-16.72,15.74,16.72-15.74,16.72ZM2437.65,1021.17l-15.74-16.73,15.74-16.73,15.74,16.73-15.74,16.73ZM2456.42,1041.12l-15.74-16.72,15.74-16.72,15.74,16.72-15.74,16.72ZM2475.19,1061.07l-15.74-16.73,15.74-16.73,15.74,16.73-15.74,16.72ZM2493.96,1081.02l-15.74-16.72,15.74-16.72,15.74,16.72-15.74,16.72ZM2512.74,1100.98l-15.74-16.72,15.74-16.73,15.74,16.73-15.74,16.72ZM2547.25,1104.2l-15.74,16.72-15.74-16.72,15.74-16.72,15.74,16.72ZM2566.02,1084.25l-15.74,16.72-15.74-16.72,15.74-16.73,15.74,16.73ZM2584.79,1064.3l-15.74,16.72-15.74-16.72,15.74-16.72,15.74,16.72ZM2603.57,1044.35l-15.74,16.72-15.74-16.73,15.74-16.73,15.74,16.73ZM2622.34,1024.39l-15.74,16.72-15.74-16.72,15.74-16.72,15.74,16.72ZM2641.11,1004.44l-15.74,16.73-15.74-16.73,15.74-16.73,15.74,16.73ZM2644.14,967.76l15.74,16.72-15.74,16.72-15.74-16.72,15.74-16.72ZM2625.38,947.81l15.74,16.73-15.74,16.73-15.74-16.73,15.74-16.73ZM2606.6,927.85l15.74,16.73-15.74,16.72-15.74-16.72,15.74-16.73ZM2587.83,907.9l15.74,16.72-15.74,16.73-15.74-16.73,15.74-16.72ZM2569.05,887.95l15.74,16.73-15.74,16.72-15.74-16.72,15.74-16.73ZM2550.28,868l15.74,16.72-15.74,16.73-15.74-16.73,15.74-16.72ZM2515.77,864.77l15.74-16.73,15.74,16.73-15.74,16.72-15.74-16.72ZM2497,884.72l15.74-16.72,15.74,16.72-15.74,16.73-15.74-16.73ZM2478.22,904.68l15.74-16.73,15.74,16.73-15.74,16.72-15.74-16.72ZM2459.46,924.63l15.74-16.72,15.74,16.72-15.74,16.73-15.74-16.73ZM2440.68,944.58l15.74-16.73,15.74,16.73-15.74,16.72-15.74-16.72ZM2437.65,981.27l-15.74-16.73,15.74-16.73,15.74,16.73-15.74,16.73ZM2456.42,1001.21l-15.74-16.72,15.74-16.72,15.74,16.72-15.74,16.72ZM2475.19,1021.17l-15.74-16.73,15.74-16.73,15.74,16.73-15.74,16.73ZM2493.96,1041.12l-15.74-16.72,15.74-16.72,15.74,16.72-15.74,16.72ZM2512.74,1061.07l-15.74-16.73,15.74-16.73,15.74,16.73-15.74,16.72ZM2547.25,1064.3l-15.74,16.72-15.74-16.72,15.74-16.72,15.74,16.72ZM2566.02,1044.35l-15.74,16.72-15.74-16.73,15.74-16.73,15.74,16.73ZM2584.79,1024.39l-15.74,16.72-15.74-16.72,15.74-16.72,15.74,16.72ZM2603.57,1004.44l-15.74,16.73-15.74-16.73,15.74-16.73,15.74,16.73ZM2606.6,967.76l15.74,16.72-15.74,16.72-15.74-16.72,15.74-16.72ZM2587.83,947.81l15.74,16.73-15.74,16.73-15.74-16.73,15.74-16.73ZM2569.05,927.85l15.74,16.73-15.74,16.72-15.74-16.72,15.74-16.73ZM2550.28,907.9l15.74,16.72-15.74,16.73-15.74-16.73,15.74-16.72ZM2515.77,904.68l15.74-16.73,15.74,16.73-15.74,16.72-15.74-16.72ZM2497,924.63l15.74-16.72,15.74,16.72-15.74,16.73-15.74-16.73ZM2478.22,944.58l15.74-16.73,15.74,16.73-15.74,16.72-15.74-16.72ZM2475.19,981.27l-15.74-16.73,15.74-16.73,15.74,16.73-15.74,16.73ZM2493.96,1001.21l-15.74-16.72,15.74-16.72,15.74,16.72-15.74,16.72ZM2512.74,1021.17l-15.74-16.73,15.74-16.73,15.74,16.73-15.74,16.73ZM2547.25,1024.39l-15.74,16.72-15.74-16.72,15.74-16.72,15.74,16.72ZM2566.02,1004.44l-15.74,16.73-15.74-16.73,15.74-16.73,15.74,16.73ZM2569.05,967.76l15.74,16.72-15.74,16.72-15.74-16.72,15.74-16.72ZM2550.28,947.81l15.74,16.73-15.74,16.73-15.74-16.73,15.74-16.73ZM2515.77,944.58l15.74-16.73,15.74,16.73-15.74,16.72-15.74-16.72ZM2531.51,967.76l15.74,16.72-15.74,16.72-15.74-16.72,15.74-16.72ZM2512.74,981.27l-15.74-16.73,15.74-16.73,15.74,16.73-15.74,16.73ZM2400.1,947.81l15.74,16.73-15.74,16.73-15.74-16.73,15.74-16.73ZM2359.53,984.49l-7.87,8.37,3.03,3.22,7.87-8.37,15.74,16.73-7.87,8.36,3.04,3.22,7.86-8.36,15.74,16.72-7.87,8.37,3.03,3.22,7.87-8.37,15.74,16.73-7.86,8.36,3.03,3.22,7.86-8.36,15.74,16.72-7.87,8.37,3.03,3.22,7.87-8.37,15.74,16.73-7.86,8.36,3.03,3.23,7.87-8.36,15.74,16.72-7.87,8.37,3.03,3.22,7.87-8.37,15.74,16.73-7.86,8.36,3.03,3.23,7.87-8.36,15.74,16.72-7.87,8.37,3.03,3.22,7.87-8.36,15.74,16.73-7.87,8.36,3.03,3.22,7.87-8.36,7.87,8.36,3.04-3.23-7.87-8.36,15.74-16.73,7.87,8.36,3.03-3.22-7.87-8.37,15.74-16.72,7.87,8.36,3.03-3.23-7.87-8.36,15.74-16.73,7.87,8.37,3.03-3.22-7.87-8.37,15.74-16.72,7.87,8.36,3.03-3.23-7.87-8.36,15.74-16.73,7.87,8.37,3.03-3.22-7.87-8.37,15.74-16.72,7.87,8.36,3.03-3.22-7.87-8.36,15.74-16.73,7.87,8.37,3.03-3.22-7.87-8.37,15.74-16.72,7.87,8.36,3.03-3.22-7.87-8.36,15.74-16.73,7.87,8.37,3.04-3.23-7.87-8.36,7.87-8.37-3.04-3.22-7.87,8.37-15.74-16.73,7.87-8.36-3.03-3.23-7.87,8.36-15.74-16.72,7.87-8.37-3.03-3.22-7.87,8.37-15.74-16.73,7.87-8.36-3.03-3.23-7.87,8.36-15.74-16.72,7.87-8.37-3.03-3.22-7.87,8.36-15.74-16.73,7.87-8.36-3.03-3.22-7.87,8.36-15.74-16.72,7.87-8.37-3.03-3.22-7.87,8.36-15.74-16.73,7.87-8.36-3.03-3.22-7.87,8.36-15.74-16.73,7.87-8.36-3.03-3.22-7.87,8.36-15.74-16.73,7.87-8.36-3.04-3.22-7.87,8.36-7.87-8.36-3.03,3.22,7.87,8.36-15.74,16.73-7.87-8.36-3.03,3.22,7.87,8.36-15.74,16.73-7.87-8.36-3.03,3.22,7.86,8.36-15.74,16.73-7.87-8.36-3.03,3.22,7.87,8.37-15.74,16.72-7.87-8.36-3.03,3.22,7.86,8.36-15.74,16.73-7.87-8.36-3.03,3.22,7.87,8.37-15.74,16.72-7.86-8.36-3.03,3.23,7.86,8.36-15.74,16.73-7.87-8.36-3.03,3.22,7.87,8.37-15.74,16.72-7.86-8.36-3.04,3.23,7.87,8.36-15.74,16.73-7.87-8.37-3.03,3.22,7.87,8.37Z"/>
                </g>
                <path class="st13" d="M2367.74,979.92l15.74-16.73,15.74,16.73-15.74,16.72-15.74-16.72ZM2386.51,999.88l15.74-16.73,15.74,16.73-15.74,16.73-15.74-16.73ZM2405.28,1019.83l15.74-16.73,15.74,16.73-15.74,16.72-15.74-16.72ZM2424.05,1039.78l15.74-16.73,15.74,16.73-15.74,16.73-15.74-16.73ZM2442.83,1059.73l15.74-16.72,15.74,16.72-15.74,16.72-15.74-16.72ZM2461.6,1079.68l15.74-16.73,15.74,16.73-15.74,16.73-15.74-16.73ZM2480.37,1099.64l15.74-16.72,15.74,16.72-15.74,16.72-15.74-16.72ZM2499.14,1119.59l15.74-16.73,15.74,16.73-15.74,16.72-15.74-16.72ZM2517.91,1139.54l15.74-16.72,15.74,16.72-15.74,16.72-15.74-16.72ZM2552.43,1136.32l-15.74-16.72,15.74-16.73,15.74,16.73-15.74,16.72ZM2571.19,1116.36l-15.74-16.72,15.74-16.72,15.74,16.72-15.74,16.72ZM2589.97,1096.41l-15.74-16.73,15.74-16.73,15.74,16.73-15.74,16.73ZM2608.74,1076.46l-15.74-16.72,15.74-16.72,15.74,16.72-15.74,16.72ZM2627.52,1056.51l-15.74-16.73,15.74-16.73,15.74,16.73-15.74,16.73ZM2646.29,1036.55l-15.74-16.72,15.74-16.73,15.74,16.73-15.74,16.72ZM2665.06,1016.6l-15.74-16.73,15.74-16.73,15.74,16.73-15.74,16.73ZM2683.83,996.65l-15.74-16.72,15.74-16.73,15.74,16.73-15.74,16.72ZM2680.8,959.97l-15.74,16.72-15.74-16.72,15.74-16.73,15.74,16.73ZM2662.03,940.02l-15.74,16.72-15.74-16.72,15.74-16.73,15.74,16.73ZM2643.25,920.06l-15.74,16.73-15.74-16.73,15.74-16.72,15.74,16.72ZM2624.48,900.11l-15.74,16.73-15.74-16.73,15.74-16.72,15.74,16.72ZM2605.71,880.16l-15.74,16.73-15.74-16.73,15.74-16.72,15.74,16.72ZM2586.94,860.2l-15.74,16.73-15.74-16.73,15.74-16.72,15.74,16.72ZM2568.16,840.25l-15.74,16.73-15.74-16.73,15.74-16.73,15.74,16.73ZM2549.39,820.3l-15.74,16.73-15.74-16.73,15.74-16.72,15.74,16.72ZM2514.88,823.52l15.74,16.73-15.74,16.73-15.74-16.73,15.74-16.73ZM2496.11,843.48l15.74,16.72-15.74,16.73-15.74-16.73,15.74-16.72ZM2477.34,863.43l15.74,16.72-15.74,16.73-15.74-16.73,15.74-16.72ZM2458.56,883.39l15.74,16.72-15.74,16.73-15.74-16.73,15.74-16.72ZM2439.79,903.34l15.74,16.72-15.74,16.73-15.74-16.73,15.74-16.72ZM2421.02,923.29l15.74,16.73-15.74,16.72-15.74-16.72,15.74-16.73ZM2421.02,996.65l-15.74-16.72,15.74-16.73,15.74,16.73-15.74,16.72ZM2439.79,1016.6l-15.74-16.73,15.74-16.73,15.74,16.73-15.74,16.73ZM2458.56,1036.55l-15.74-16.72,15.74-16.73,15.74,16.73-15.74,16.72ZM2477.34,1056.51l-15.74-16.73,15.74-16.73,15.74,16.73-15.74,16.73ZM2496.11,1076.46l-15.74-16.72,15.74-16.72,15.74,16.72-15.74,16.72ZM2514.88,1096.41l-15.74-16.73,15.74-16.73,15.74,16.73-15.74,16.73ZM2549.39,1099.64l-15.74,16.72-15.74-16.72,15.74-16.72,15.74,16.72ZM2568.16,1079.68l-15.74,16.73-15.74-16.73,15.74-16.73,15.74,16.73ZM2586.94,1059.73l-15.74,16.72-15.74-16.72,15.74-16.72,15.74,16.72ZM2605.71,1039.78l-15.74,16.73-15.74-16.73,15.74-16.73,15.74,16.73ZM2624.48,1019.83l-15.74,16.72-15.74-16.72,15.74-16.73,15.74,16.73ZM2643.25,999.88l-15.74,16.73-15.74-16.73,15.74-16.73,15.74,16.73ZM2646.29,963.19l15.74,16.73-15.74,16.72-15.74-16.72,15.74-16.73ZM2627.52,943.24l15.74,16.73-15.74,16.72-15.74-16.72,15.74-16.73ZM2608.74,923.29l15.74,16.73-15.74,16.72-15.74-16.72,15.74-16.73ZM2589.97,903.34l15.74,16.72-15.74,16.73-15.74-16.73,15.74-16.72ZM2571.19,883.39l15.74,16.72-15.74,16.73-15.74-16.73,15.74-16.72ZM2552.43,863.43l15.74,16.72-15.74,16.73-15.74-16.73,15.74-16.72ZM2517.91,860.2l15.74-16.72,15.74,16.72-15.74,16.73-15.74-16.73ZM2499.14,880.16l15.74-16.72,15.74,16.72-15.74,16.73-15.74-16.73ZM2480.37,900.11l15.74-16.72,15.74,16.72-15.74,16.73-15.74-16.73ZM2461.6,920.06l15.74-16.72,15.74,16.72-15.74,16.73-15.74-16.73ZM2442.83,940.02l15.74-16.73,15.74,16.73-15.74,16.72-15.74-16.72ZM2439.79,976.7l-15.74-16.72,15.74-16.73,15.74,16.73-15.74,16.72ZM2458.56,996.65l-15.74-16.72,15.74-16.73,15.74,16.73-15.74,16.72ZM2477.34,1016.6l-15.74-16.73,15.74-16.73,15.74,16.73-15.74,16.73ZM2496.11,1036.55l-15.74-16.72,15.74-16.73,15.74,16.73-15.74,16.72ZM2514.88,1056.51l-15.74-16.73,15.74-16.73,15.74,16.73-15.74,16.73ZM2549.39,1059.73l-15.74,16.72-15.74-16.72,15.74-16.72,15.74,16.72ZM2568.16,1039.78l-15.74,16.73-15.74-16.73,15.74-16.73,15.74,16.73ZM2586.94,1019.83l-15.74,16.72-15.74-16.72,15.74-16.73,15.74,16.73ZM2605.71,999.88l-15.74,16.73-15.74-16.73,15.74-16.73,15.74,16.73ZM2608.74,963.19l15.74,16.73-15.74,16.72-15.74-16.72,15.74-16.73ZM2589.97,943.24l15.74,16.73-15.74,16.72-15.74-16.72,15.74-16.73ZM2571.19,923.29l15.74,16.73-15.74,16.72-15.74-16.72,15.74-16.73ZM2552.43,903.34l15.74,16.72-15.74,16.73-15.74-16.73,15.74-16.72ZM2517.91,900.11l15.74-16.72,15.74,16.72-15.74,16.73-15.74-16.73ZM2499.14,920.06l15.74-16.72,15.74,16.72-15.74,16.73-15.74-16.73ZM2480.37,940.02l15.74-16.73,15.74,16.73-15.74,16.72-15.74-16.72ZM2477.34,976.7l-15.74-16.72,15.74-16.73,15.74,16.73-15.74,16.72ZM2496.11,996.65l-15.74-16.72,15.74-16.73,15.74,16.73-15.74,16.72ZM2514.88,1016.6l-15.74-16.73,15.74-16.73,15.74,16.73-15.74,16.73ZM2549.39,1019.83l-15.74,16.72-15.74-16.72,15.74-16.73,15.74,16.73ZM2568.16,999.88l-15.74,16.73-15.74-16.73,15.74-16.73,15.74,16.73ZM2571.19,963.19l15.74,16.73-15.74,16.72-15.74-16.72,15.74-16.73ZM2552.43,943.24l15.74,16.73-15.74,16.72-15.74-16.72,15.74-16.73ZM2517.91,940.02l15.74-16.73,15.74,16.73-15.74,16.72-15.74-16.72ZM2533.65,963.19l15.74,16.73-15.74,16.72-15.74-16.72,15.74-16.73ZM2514.88,976.7l-15.74-16.72,15.74-16.73,15.74,16.73-15.74,16.72ZM2402.24,943.24l15.74,16.73-15.74,16.72-15.74-16.72,15.74-16.73ZM2361.67,979.92l-7.87,8.36,3.04,3.23,7.87-8.37,15.74,16.73-7.87,8.36,3.03,3.22,7.87-8.36,15.74,16.73-7.87,8.36,3.03,3.23,7.87-8.37,15.74,16.73-7.87,8.36,3.03,3.22,7.87-8.36,15.74,16.72-7.87,8.37,3.03,3.22,7.87-8.37,15.74,16.73-7.87,8.36,3.03,3.22,7.87-8.36,15.74,16.72-7.87,8.37,3.03,3.22,7.87-8.37,15.74,16.73-7.87,8.36,3.04,3.22,7.86-8.36,15.74,16.72-7.87,8.37,3.03,3.22,7.87-8.37,15.74,16.73-7.87,8.36,3.04,3.23,7.86-8.36,7.87,8.36,3.03-3.23-7.86-8.36,15.74-16.73,7.87,8.37,3.03-3.22-7.87-8.37,15.74-16.72,7.87,8.36,3.03-3.22-7.86-8.36,15.74-16.73,7.87,8.37,3.03-3.22-7.87-8.37,15.74-16.72,7.87,8.36,3.03-3.22-7.86-8.36,15.74-16.73,7.87,8.37,3.03-3.22-7.87-8.37,15.74-16.72,7.87,8.36,3.04-3.22-7.87-8.36,15.74-16.73,7.87,8.37,3.03-3.23-7.87-8.36,15.74-16.73,7.87,8.36,3.04-3.22-7.87-8.36,15.74-16.73,7.87,8.37,3.03-3.23-7.87-8.36,7.87-8.37-3.03-3.22-7.87,8.36-15.74-16.72,7.87-8.37-3.04-3.22-7.87,8.36-15.74-16.72,7.87-8.37-3.03-3.22-7.87,8.36-15.74-16.73,7.87-8.36-3.04-3.22-7.87,8.36-15.74-16.73,7.87-8.36-3.03-3.22-7.87,8.36-15.74-16.73,7.86-8.36-3.03-3.22-7.87,8.36-15.74-16.73,7.87-8.36-3.03-3.23-7.87,8.37-15.74-16.73,7.86-8.36-3.03-3.22-7.87,8.36-15.74-16.73,7.87-8.36-3.03-3.23-7.87,8.37-15.74-16.73,7.86-8.36-3.03-3.22-7.87,8.36-7.86-8.36-3.04,3.22,7.87,8.36-15.74,16.73-7.87-8.37-3.03,3.23,7.87,8.36-15.74,16.73-7.86-8.36-3.04,3.22,7.87,8.36-15.74,16.73-7.87-8.37-3.03,3.23,7.87,8.36-15.74,16.73-7.87-8.36-3.03,3.22,7.87,8.36-15.74,16.73-7.87-8.36-3.03,3.22,7.87,8.36-15.74,16.73-7.87-8.36-3.03,3.22,7.87,8.36-15.74,16.73-7.87-8.36-3.03,3.22,7.87,8.37-15.74,16.72-7.87-8.36-3.03,3.22,7.87,8.37-15.74,16.72-7.87-8.36-3.04,3.22,7.87,8.37Z"/>
              </g>
            </g>
            <g class="st27">
              <path d="M2588.73,1058.68c-26.66,0-54.68-12.33-73.54-32.37s-31.62-50.63-30.46-78.16c.06-1.58.2-3.15.32-4.71h-22.74v98.63c0,12.59,9.61,22.8,21.46,22.8h99.76c5.94,0,11.31-2.56,15.2-6.7-3.28.34-6.61.52-10,.52"/>
            </g>
            <path class="st8" d="M2535.24,954.44l.03.03c.34.39,4.02,4.49,10.09,8.44,6.07,3.96,14.51,7.76,24.46,7.75,10.27-.01,22.26-3.98,35.36-16.39.88-.84,2.24-.76,3.03.18.79.94.71,2.38-.17,3.22-13.71,13.04-26.87,17.57-38.22,17.56-11.35,0-20.76-4.45-27.33-8.84-6.57-4.4-10.33-8.78-10.42-8.88-.8-.93-.74-2.37.14-3.22.87-.85,2.23-.78,3.03.15"/>
            <path class="st8" d="M2535.24,957.51c-.09.1-3.85,4.48-10.41,8.88-6.56,4.39-15.98,8.84-27.33,8.84-11.34,0-24.5-4.52-38.22-17.56-.88-.84-.96-2.28-.17-3.22.79-.94,2.15-1.02,3.03-.18,13.1,12.42,25.09,16.38,35.36,16.39,10.26,0,18.93-4.04,25.04-8.14,3.05-2.04,5.46-4.09,7.09-5.62.81-.76,1.44-1.4,1.85-1.83.21-.22.36-.39.45-.5l.11-.12.02-.03c.8-.93,2.15-1,3.03-.15.87.85.94,2.29.14,3.22"/>
            <g class="st27">
              <path d="M2459.28,955.39c13.72,13.04,26.88,17.57,38.22,17.56,11.35,0,20.77-4.44,27.33-8.84,4.12-2.76,7.14-5.51,8.83-7.2,1.7,1.69,4.71,4.44,8.83,7.2,6.56,4.39,15.98,8.83,27.33,8.84,11.35.01,24.5-4.51,38.22-17.56.17-.16.27-.35.38-.54.5.91.38,2.09-.38,2.83-13.72,13.04-26.87,17.57-38.22,17.56-11.34,0-20.76-4.45-27.33-8.84-4.12-2.77-7.13-5.51-8.83-7.21-1.69,1.7-4.71,4.44-8.83,7.21-6.56,4.39-15.98,8.83-27.33,8.84-11.34.01-24.5-4.52-38.22-17.56-.77-.74-.88-1.92-.38-2.83.11.19.22.39.38.54"/>
            </g>
            <path class="st11" d="M2444.02,981.26c0,8.55,6.52,15.48,14.56,15.48s14.56-6.93,14.56-15.48-14.56-28.99-14.56-28.99c0,0-14.56,20.44-14.56,28.99"/>
            <g class="st27">
              <path d="M2458.57,952.27s.23.32.63.89c-4.32,6.67-10.9,17.78-10.9,23.53,0,8.55,6.52,15.48,14.56,15.48,2.93,0,5.64-.92,7.92-2.5-2.59,4.24-7.09,7.06-12.21,7.06-8.04,0-14.56-6.93-14.56-15.47s14.56-28.99,14.56-28.99"/>
            </g>
            <g class="st27">
              <path class="st8" d="M2462.42,974.54c1.4,4.27,3.84,7.23,5.47,6.63,1.63-.61,1.82-4.54.43-8.81-1.4-4.26-3.84-7.23-5.47-6.63-1.63.61-1.82,4.55-.43,8.81"/>
            </g>
            <path class="st11" d="M2519.12,981.26c0,8.55,6.52,15.48,14.56,15.48s14.56-6.93,14.56-15.48-14.56-28.99-14.56-28.99c0,0-14.56,20.44-14.56,28.99"/>
            <g class="st27">
              <path d="M2533.65,952.27s.23.32.63.89c-4.32,6.67-10.9,17.78-10.9,23.53,0,8.55,6.52,15.48,14.56,15.48,2.92,0,5.64-.92,7.92-2.5-2.59,4.24-7.09,7.06-12.21,7.06-8.04,0-14.56-6.93-14.56-15.47s14.56-28.99,14.56-28.99"/>
            </g>
            <g class="st27">
              <path class="st8" d="M2537.52,974.54c1.39,4.26,3.84,7.23,5.47,6.63,1.63-.61,1.81-4.54.42-8.81s-3.84-7.23-5.47-6.64c-1.63.61-1.82,4.55-.42,8.81"/>
            </g>
            <path class="st11" d="M2594.18,981.26c0,8.55,6.52,15.48,14.57,15.48s14.55-6.93,14.55-15.48-14.55-28.99-14.55-28.99c0,0-14.57,20.44-14.57,28.99"/>
            <g class="st27">
              <path d="M2608.75,952.27s.22.32.62.89c-4.32,6.67-10.89,17.78-10.89,23.53,0,8.55,6.52,15.48,14.56,15.48,2.92,0,5.64-.92,7.92-2.5-2.59,4.24-7.09,7.06-12.21,7.06-8.05,0-14.57-6.93-14.57-15.47s14.57-28.99,14.57-28.99"/>
            </g>
            <g class="st27">
              <path class="st8" d="M2612.61,974.54c1.39,4.26,3.84,7.23,5.47,6.63,1.63-.61,1.81-4.54.42-8.81s-3.84-7.23-5.47-6.64c-1.63.61-1.82,4.55-.42,8.81"/>
            </g>
            <rect class="st15" x="2455.88" y="938.87" width="155.54" height="17.1"/>
            <g class="st27">
              <path d="M2469.83,938.88v13.11h141.6v4h-155.54v-17.1h13.95Z"/>
            </g>
          </g>
        </g>
        <path class="st6" d="M2234.43.09c57.01.52,111.04,27.32,158.74,59.58,24.61,16.67,47.74,35.55,68.97,56.37,0,0,32.14-4.56,61.41-5.24,24.58-.57,49.19,1.08,73.59,4.8,0,0,5.2-4.03,10.33-8.81,51.12-47.3,112.16-87.08,178.08-101.87,44.14-9.9,94.38-3.11,124.89,29.65,42.83,46.03,49.01,118.8,42.9,189.29-4.29,49.57-15.2,98.75-35.01,144.18,0,0,12.43,31.85,19.78,62.04,25.74,105.55,13.16,224.63-63.55,300.36-68.53,67.65-170.48,91.88-265.41,99.99-81.44,6.96-164.08,5.46-244.36-11.34-86.86-18.18-172.85-61.44-215.35-141.01-48.32-90.39-41.56-205.26-4.07-301.65,0,0-1.78-3.99-3.71-8.35-37.41-85.71-50.5-187.26-25.38-271.72,15.02-50.62,54.83-94.51,113.55-96.22,1.53-.04,3.09-.05,4.62-.05ZM2232.32,21.63c-30.25.41-59.81,14.91-76.68,39.73-39.52,58.18-34.39,139.67-20.47,211.41,6.47,33.15,15.92,65.75,30.54,96.06l1.78,3.97c1.82,8.82,1.09,3.15-3.78,15.88-42.32,112.77-38.9,250.68,44.21,331.89,66.1,64.59,165.32,83.84,254.76,89.71,95.48,6.25,193.02,2.29,282.97-28.39,65.15-22.22,126.05-63.91,156.7-126.31,42.28-86.21,32.14-193.49-6-282.78,0,0-1.82-4,3.27-15.78,35.96-84.45,48.86-185.97,19.81-265.42-11.16-30.51-33.45-58.31-65.48-66.64-48.79-12.69-102.17,9.08-148.52,35.88-34.39,19.87-66.1,44.31-94.28,72.26l-3.09,2.89c-5.67,3.46,1.16,3.25-16.29.59-43.48-6.39-87.84-5.56-130.71,2.28,0,0-7.64-1.16-14.03-7.46-58.72-57.59-132.52-108.45-211.71-109.76-1.02,0-2-.01-3.02,0Z"/>
      </g>
    </g>
  </g>
  <g id="Generative_Object">
    <g id="Original_Art">
      <g id="player2" data-name="player">
        <rect class="st0" x="2103.44" y=".03" width="852" height="1080"/>
        <g class="st23">
          <g>
            <g>
              <path class="st0" d="M2485.44,942.1l-84.99-136.24"/>
              <path class="st6" d="M2400.84,797.49c2.79.24,4.62.86,6.72,3.93l84.99,136.24c4.34,7.63-7.33,18.96-14.21,8.86l-84.99-136.24c-1.09-1.91-1.16-2.58-1.25-3.81-.43-5.7,7.65-8.99,8.74-8.99Z"/>
              <path class="st0" d="M2579.82,942.1l84.99-136.24"/>
              <path class="st6" d="M2665.76,797.54c2.05.32,2.36.57,3.18,1.04,3.94,2.24,5.76,6.8,2.96,11.71l-84.99,136.24c-2.51,3.68-3.64,3.4-5.38,3.76-6.3,1.33-12.46-6.24-8.83-12.63l84.99-136.24c1.83-2.69,4.72-4.14,8.06-3.89Z"/>
              <g>
                <path class="st7" d="M2601.83,127.27c76.86-77.35,202.48-145.19,277.19-103.93,90.79,50.12,74.24,243.31,27.34,345.22,21.27,49.61,33.05,104.3,33.05,161.74,0,225.64-189.06,292.72-413.21,292.72s-398.99-67.08-398.99-292.72c0-54.63,10.69-106.76,30.03-154.42-49.56-99.67-69.19-301.19,23.81-352.54,75.04-41.44,201.39,27.16,278.17,104.92,24.03-4.46,48.79-6.8,74.1-6.8,23.34,0,46.21,1.99,68.5,5.81Z"/>
                <g class="st22">
                  <ellipse class="st9" cx="2332.02" cy="496.6" rx="210.6" ry="565.09" transform="translate(-51.86 541.6) rotate(-13.1)"/>
                </g>
              </g>
              <circle class="st11" cx="2362.63" cy="417.06" r="95.62"/>
              <path class="st6" d="M2190.27,321.44l175.24-172.21s-97.92-113.43-149.76-96.81c-51.84,16.61-55.5,156.68-25.48,269.02Z"/>
              <path class="st6" d="M2871.58,321.44l-175.24-172.21s97.92-113.43,149.76-96.81c51.84,16.61,55.5,156.68,25.48,269.02Z"/>
              <circle class="st11" cx="2703.54" cy="417.06" r="95.62"/>
              <circle class="st8" cx="2332.65" cy="384.47" r="37.03"/>
              <circle class="st8" cx="2391.35" cy="474.94" r="22.65"/>
              <path class="st6" d="M2533.68,528.96c11.33,0,20.54,6.46,20.54,14.42s-9.2,19.77-20.54,19.77-20.53-11.81-20.53-19.77,9.2-14.42,20.53-14.42Z"/>
              <circle class="st8" cx="2746.5" cy="391.2" r="37.03" transform="translate(2349.53 3136.87) rotate(-89.88)"/>
              <circle class="st8" cx="2663.68" cy="460.37" r="22.65" transform="translate(2197.72 3123.08) rotate(-89.88)"/>
              <path class="st6" d="M2534.61,553.69c3.7.19,4.1,1.06,5.15,1.94,11.8,9.85-13.49,36.17-30.64,36.73-14.63.47-29.78-6.16-37.62-17.77-4.9-7.27,5.6-16.52,15.24-8.52,7.58,6.16,17.31,11.42,25.53,8.97,9.01-2.69,14.62-16.72,14.62-16.72,1.54-2.88,3.48-4.62,7.71-4.62Z"/>
              <path class="st6" d="M2538.18,553.71c9.56.99,9.58,18.66,22.38,21.56,10.64,2.41,20.8-5.56,27.4-11.66,0,0,14.77-4.45,13.87,6.96-.09,1.15-.42,2.27-.96,3.29-8.81,16.49-40.58,24.9-57.22,11.18-6.11-5.04-10.35-11.91-13.55-19.07,0,0-1.28-12.73,8.08-12.25Z"/>
              <g>
                <path class="st3" d="M2462.33,946.47v95.59c0,12.59,9.61,22.81,21.45,22.81h99.76c11.85,0,21.45-10.21,21.45-22.81v-95.59h-142.67Z"/>
                <g class="st24">
                  <g>
                    <g class="st27">
                      <path d="M2365.59,984.49l15.74-16.72,15.74,16.72-15.74,16.72-15.74-16.72ZM2384.36,1004.44l15.74-16.73,15.74,16.73-15.74,16.73-15.74-16.73ZM2403.14,1024.39l15.74-16.72,15.74,16.72-15.74,16.72-15.74-16.72ZM2421.91,1044.35l15.74-16.73,15.74,16.73-15.74,16.72-15.74-16.73ZM2440.68,1064.3l15.74-16.72,15.74,16.72-15.74,16.72-15.74-16.72ZM2459.46,1084.25l15.74-16.73,15.74,16.73-15.74,16.72-15.74-16.72ZM2478.23,1104.2l15.74-16.72,15.74,16.72-15.74,16.72-15.74-16.72ZM2497,1124.16l15.74-16.73,15.74,16.73-15.74,16.72-15.74-16.72ZM2515.77,1144.11l15.74-16.72,15.74,16.72-15.74,16.73-15.74-16.73ZM2550.28,1140.88l-15.74-16.72,15.74-16.73,15.74,16.73-15.74,16.72ZM2569.05,1120.93l-15.74-16.72,15.74-16.72,15.74,16.72-15.74,16.72ZM2587.83,1100.98l-15.74-16.72,15.74-16.73,15.74,16.73-15.74,16.72ZM2606.6,1081.02l-15.74-16.72,15.74-16.72,15.74,16.72-15.74,16.72ZM2625.38,1061.07l-15.74-16.72,15.74-16.73,15.74,16.73-15.74,16.72ZM2644.14,1041.12l-15.74-16.72,15.74-16.72,15.74,16.72-15.74,16.72ZM2662.92,1021.17l-15.74-16.73,15.74-16.73,15.74,16.73-15.74,16.73ZM2681.69,1001.21l-15.74-16.72,15.74-16.72,15.74,16.72-15.74,16.72ZM2678.65,964.54l-15.74,16.73-15.74-16.73,15.74-16.73,15.74,16.73ZM2659.88,944.58l-15.74,16.72-15.74-16.72,15.74-16.73,15.74,16.73ZM2641.11,924.63l-15.74,16.73-15.74-16.73,15.74-16.72,15.74,16.72ZM2622.34,904.68l-15.74,16.72-15.74-16.72,15.74-16.73,15.74,16.73ZM2603.57,884.72l-15.74,16.73-15.74-16.73,15.74-16.72,15.74,16.72ZM2584.79,864.77l-15.74,16.72-15.74-16.72,15.74-16.73,15.74,16.73ZM2566.02,844.82l-15.74,16.73-15.74-16.73,15.74-16.72,15.74,16.72ZM2547.25,824.87l-15.74,16.73-15.74-16.73,15.74-16.72,15.74,16.72ZM2512.74,828.09l15.74,16.72-15.74,16.73-15.74-16.73,15.74-16.72ZM2493.96,848.05l15.74,16.73-15.74,16.72-15.74-16.72,15.74-16.73ZM2475.19,868l15.74,16.72-15.74,16.73-15.74-16.73,15.74-16.72ZM2456.42,887.95l15.74,16.73-15.74,16.72-15.74-16.72,15.74-16.73ZM2437.65,907.9l15.74,16.72-15.74,16.73-15.74-16.73,15.74-16.72ZM2418.87,927.85l15.74,16.73-15.74,16.72-15.74-16.72,15.74-16.73ZM2418.87,1001.21l-15.74-16.72,15.74-16.72,15.74,16.72-15.74,16.72ZM2437.65,1021.17l-15.74-16.73,15.74-16.73,15.74,16.73-15.74,16.73ZM2456.42,1041.12l-15.74-16.72,15.74-16.72,15.74,16.72-15.74,16.72ZM2475.19,1061.07l-15.74-16.73,15.74-16.73,15.74,16.73-15.74,16.72ZM2493.96,1081.02l-15.74-16.72,15.74-16.72,15.74,16.72-15.74,16.72ZM2512.74,1100.98l-15.74-16.72,15.74-16.73,15.74,16.73-15.74,16.72ZM2547.25,1104.2l-15.74,16.72-15.74-16.72,15.74-16.72,15.74,16.72ZM2566.02,1084.25l-15.74,16.72-15.74-16.72,15.74-16.73,15.74,16.73ZM2584.79,1064.3l-15.74,16.72-15.74-16.72,15.74-16.72,15.74,16.72ZM2603.57,1044.35l-15.74,16.72-15.74-16.73,15.74-16.73,15.74,16.73ZM2622.34,1024.39l-15.74,16.72-15.74-16.72,15.74-16.72,15.74,16.72ZM2641.11,1004.44l-15.74,16.73-15.74-16.73,15.74-16.73,15.74,16.73ZM2644.14,967.76l15.74,16.72-15.74,16.72-15.74-16.72,15.74-16.72ZM2625.38,947.81l15.74,16.73-15.74,16.73-15.74-16.73,15.74-16.73ZM2606.6,927.85l15.74,16.73-15.74,16.72-15.74-16.72,15.74-16.73ZM2587.83,907.9l15.74,16.72-15.74,16.73-15.74-16.73,15.74-16.72ZM2569.05,887.95l15.74,16.73-15.74,16.72-15.74-16.72,15.74-16.73ZM2550.28,868l15.74,16.72-15.74,16.73-15.74-16.73,15.74-16.72ZM2515.77,864.77l15.74-16.73,15.74,16.73-15.74,16.72-15.74-16.72ZM2497,884.72l15.74-16.72,15.74,16.72-15.74,16.73-15.74-16.73ZM2478.23,904.68l15.74-16.73,15.74,16.73-15.74,16.72-15.74-16.72ZM2459.46,924.63l15.74-16.72,15.74,16.72-15.74,16.73-15.74-16.73ZM2440.68,944.58l15.74-16.73,15.74,16.73-15.74,16.72-15.74-16.72ZM2437.65,981.26l-15.74-16.73,15.74-16.73,15.74,16.73-15.74,16.73ZM2456.42,1001.21l-15.74-16.72,15.74-16.72,15.74,16.72-15.74,16.72ZM2475.19,1021.17l-15.74-16.73,15.74-16.73,15.74,16.73-15.74,16.73ZM2493.96,1041.12l-15.74-16.72,15.74-16.72,15.74,16.72-15.74,16.72ZM2512.74,1061.07l-15.74-16.73,15.74-16.73,15.74,16.73-15.74,16.72ZM2547.25,1064.3l-15.74,16.72-15.74-16.72,15.74-16.72,15.74,16.72ZM2566.02,1044.35l-15.74,16.72-15.74-16.73,15.74-16.73,15.74,16.73ZM2584.79,1024.39l-15.74,16.72-15.74-16.72,15.74-16.72,15.74,16.72ZM2603.57,1004.44l-15.74,16.73-15.74-16.73,15.74-16.73,15.74,16.73ZM2606.6,967.76l15.74,16.72-15.74,16.72-15.74-16.72,15.74-16.72ZM2587.83,947.81l15.74,16.73-15.74,16.73-15.74-16.73,15.74-16.73ZM2569.05,927.85l15.74,16.73-15.74,16.72-15.74-16.72,15.74-16.73ZM2550.28,907.9l15.74,16.72-15.74,16.73-15.74-16.73,15.74-16.72ZM2515.77,904.68l15.74-16.73,15.74,16.73-15.74,16.72-15.74-16.72ZM2497,924.63l15.74-16.72,15.74,16.72-15.74,16.73-15.74-16.73ZM2478.23,944.58l15.74-16.73,15.74,16.73-15.74,16.72-15.74-16.72ZM2475.19,981.26l-15.74-16.73,15.74-16.73,15.74,16.73-15.74,16.73ZM2493.96,1001.21l-15.74-16.72,15.74-16.72,15.74,16.72-15.74,16.72ZM2512.74,1021.17l-15.74-16.73,15.74-16.73,15.74,16.73-15.74,16.73ZM2547.25,1024.39l-15.74,16.72-15.74-16.72,15.74-16.72,15.74,16.72ZM2566.02,1004.44l-15.74,16.73-15.74-16.73,15.74-16.73,15.74,16.73ZM2569.05,967.76l15.74,16.72-15.74,16.72-15.74-16.72,15.74-16.72ZM2550.28,947.81l15.74,16.73-15.74,16.73-15.74-16.73,15.74-16.73ZM2515.77,944.58l15.74-16.73,15.74,16.73-15.74,16.72-15.74-16.72ZM2531.51,967.76l15.74,16.72-15.74,16.72-15.74-16.72,15.74-16.72ZM2512.74,981.26l-15.74-16.73,15.74-16.73,15.74,16.73-15.74,16.73ZM2400.1,947.81l15.74,16.73-15.74,16.73-15.74-16.73,15.74-16.73ZM2359.53,984.49l-7.87,8.37,3.03,3.22,7.87-8.37,15.74,16.73-7.87,8.36,3.04,3.22,7.86-8.36,15.74,16.72-7.87,8.37,3.03,3.22,7.87-8.37,15.74,16.73-7.86,8.36,3.03,3.22,7.86-8.36,15.74,16.72-7.87,8.37,3.03,3.22,7.87-8.37,15.74,16.73-7.86,8.36,3.03,3.23,7.87-8.36,15.74,16.72-7.87,8.37,3.03,3.22,7.87-8.37,15.74,16.73-7.86,8.36,3.03,3.23,7.87-8.36,15.74,16.72-7.87,8.37,3.03,3.22,7.87-8.36,15.74,16.73-7.87,8.36,3.03,3.22,7.87-8.36,7.87,8.36,3.04-3.23-7.87-8.36,15.74-16.73,7.87,8.36,3.03-3.22-7.87-8.37,15.74-16.72,7.87,8.36,3.03-3.23-7.87-8.36,15.74-16.73,7.87,8.37,3.03-3.22-7.87-8.37,15.74-16.72,7.87,8.36,3.03-3.23-7.87-8.36,15.74-16.73,7.87,8.37,3.03-3.22-7.87-8.37,15.74-16.72,7.87,8.36,3.03-3.22-7.87-8.36,15.74-16.73,7.87,8.37,3.03-3.22-7.87-8.37,15.74-16.72,7.87,8.36,3.03-3.22-7.87-8.36,15.74-16.73,7.87,8.37,3.04-3.23-7.87-8.36,7.87-8.37-3.04-3.22-7.87,8.37-15.74-16.73,7.87-8.36-3.03-3.23-7.87,8.36-15.74-16.72,7.87-8.37-3.03-3.22-7.87,8.37-15.74-16.73,7.87-8.36-3.03-3.23-7.87,8.36-15.74-16.72,7.87-8.37-3.03-3.22-7.87,8.36-15.74-16.73,7.87-8.36-3.03-3.22-7.87,8.36-15.74-16.72,7.87-8.37-3.03-3.22-7.87,8.36-15.74-16.73,7.87-8.36-3.03-3.22-7.87,8.36-15.74-16.73,7.87-8.36-3.03-3.22-7.87,8.36-15.74-16.73,7.87-8.36-3.04-3.22-7.87,8.36-7.87-8.36-3.03,3.22,7.87,8.36-15.74,16.73-7.87-8.36-3.03,3.22,7.87,8.36-15.74,16.73-7.87-8.36-3.03,3.22,7.86,8.36-15.74,16.73-7.87-8.36-3.03,3.22,7.87,8.37-15.74,16.72-7.87-8.36-3.03,3.22,7.86,8.36-15.74,16.73-7.87-8.36-3.03,3.22,7.87,8.37-15.74,16.72-7.86-8.36-3.03,3.23,7.86,8.36-15.74,16.73-7.87-8.36-3.03,3.22,7.87,8.37-15.74,16.72-7.86-8.36-3.04,3.23,7.87,8.36-15.74,16.73-7.87-8.37-3.03,3.22,7.87,8.37Z"/>
                    </g>
                    <path class="st13" d="M2367.74,979.92l15.74-16.73,15.74,16.73-15.74,16.72-15.74-16.72ZM2386.51,999.88l15.74-16.73,15.74,16.73-15.74,16.73-15.74-16.73ZM2405.28,1019.83l15.74-16.73,15.74,16.73-15.74,16.72-15.74-16.72ZM2424.05,1039.78l15.74-16.73,15.74,16.73-15.74,16.73-15.74-16.73ZM2442.83,1059.73l15.74-16.72,15.74,16.72-15.74,16.72-15.74-16.72ZM2461.6,1079.68l15.74-16.73,15.74,16.73-15.74,16.73-15.74-16.73ZM2480.37,1099.64l15.74-16.72,15.74,16.72-15.74,16.72-15.74-16.72ZM2499.14,1119.59l15.74-16.73,15.74,16.73-15.74,16.72-15.74-16.72ZM2517.91,1139.54l15.74-16.72,15.74,16.72-15.74,16.72-15.74-16.72ZM2552.43,1136.32l-15.74-16.72,15.74-16.73,15.74,16.73-15.74,16.72ZM2571.19,1116.36l-15.74-16.72,15.74-16.72,15.74,16.72-15.74,16.72ZM2589.97,1096.41l-15.74-16.73,15.74-16.73,15.74,16.73-15.74,16.73ZM2608.74,1076.46l-15.74-16.72,15.74-16.72,15.74,16.72-15.74,16.72ZM2627.52,1056.51l-15.74-16.73,15.74-16.73,15.74,16.73-15.74,16.73ZM2646.29,1036.55l-15.74-16.72,15.74-16.73,15.74,16.73-15.74,16.72ZM2665.06,1016.6l-15.74-16.73,15.74-16.73,15.74,16.73-15.74,16.73ZM2683.83,996.65l-15.74-16.72,15.74-16.73,15.74,16.73-15.74,16.72ZM2680.8,959.97l-15.74,16.72-15.74-16.72,15.74-16.73,15.74,16.73ZM2662.03,940.02l-15.74,16.72-15.74-16.72,15.74-16.73,15.74,16.73ZM2643.25,920.06l-15.74,16.73-15.74-16.73,15.74-16.72,15.74,16.72ZM2624.48,900.11l-15.74,16.73-15.74-16.73,15.74-16.72,15.74,16.72ZM2605.71,880.16l-15.74,16.73-15.74-16.73,15.74-16.72,15.74,16.72ZM2586.94,860.2l-15.74,16.73-15.74-16.73,15.74-16.72,15.74,16.72ZM2568.16,840.25l-15.74,16.73-15.74-16.73,15.74-16.73,15.74,16.73ZM2549.39,820.3l-15.74,16.73-15.74-16.73,15.74-16.72,15.74,16.72ZM2514.88,823.52l15.74,16.73-15.74,16.73-15.74-16.73,15.74-16.73ZM2496.11,843.48l15.74,16.72-15.74,16.73-15.74-16.73,15.74-16.72ZM2477.34,863.43l15.74,16.72-15.74,16.73-15.74-16.73,15.74-16.72ZM2458.56,883.39l15.74,16.72-15.74,16.73-15.74-16.73,15.74-16.72ZM2439.79,903.34l15.74,16.72-15.74,16.73-15.74-16.73,15.74-16.72ZM2421.02,923.29l15.74,16.73-15.74,16.72-15.74-16.72,15.74-16.73ZM2421.02,996.65l-15.74-16.72,15.74-16.73,15.74,16.73-15.74,16.72ZM2439.79,1016.6l-15.74-16.73,15.74-16.73,15.74,16.73-15.74,16.73ZM2458.56,1036.55l-15.74-16.72,15.74-16.73,15.74,16.73-15.74,16.72ZM2477.34,1056.51l-15.74-16.73,15.74-16.73,15.74,16.73-15.74,16.73ZM2496.11,1076.46l-15.74-16.72,15.74-16.72,15.74,16.72-15.74,16.72ZM2514.88,1096.41l-15.74-16.73,15.74-16.73,15.74,16.73-15.74,16.73ZM2549.39,1099.64l-15.74,16.72-15.74-16.72,15.74-16.72,15.74,16.72ZM2568.16,1079.68l-15.74,16.73-15.74-16.73,15.74-16.73,15.74,16.73ZM2586.94,1059.73l-15.74,16.72-15.74-16.72,15.74-16.72,15.74,16.72ZM2605.71,1039.78l-15.74,16.73-15.74-16.73,15.74-16.73,15.74,16.73ZM2624.48,1019.83l-15.74,16.72-15.74-16.72,15.74-16.73,15.74,16.73ZM2643.25,999.88l-15.74,16.73-15.74-16.73,15.74-16.73,15.74,16.73ZM2646.29,963.19l15.74,16.73-15.74,16.72-15.74-16.72,15.74-16.73ZM2627.52,943.24l15.74,16.73-15.74,16.72-15.74-16.72,15.74-16.73ZM2608.74,923.29l15.74,16.73-15.74,16.72-15.74-16.72,15.74-16.73ZM2589.97,903.34l15.74,16.72-15.74,16.73-15.74-16.73,15.74-16.72ZM2571.19,883.39l15.74,16.72-15.74,16.73-15.74-16.73,15.74-16.72ZM2552.43,863.43l15.74,16.72-15.74,16.73-15.74-16.73,15.74-16.72ZM2517.91,860.2l15.74-16.72,15.74,16.72-15.74,16.73-15.74-16.73ZM2499.14,880.16l15.74-16.72,15.74,16.72-15.74,16.73-15.74-16.73ZM2480.37,900.11l15.74-16.72,15.74,16.72-15.74,16.73-15.74-16.73ZM2461.6,920.06l15.74-16.72,15.74,16.72-15.74,16.73-15.74-16.73ZM2442.83,940.02l15.74-16.73,15.74,16.73-15.74,16.72-15.74-16.72ZM2439.79,976.7l-15.74-16.72,15.74-16.73,15.74,16.73-15.74,16.72ZM2458.56,996.65l-15.74-16.72,15.74-16.73,15.74,16.73-15.74,16.72ZM2477.34,1016.6l-15.74-16.73,15.74-16.73,15.74,16.73-15.74,16.73ZM2496.11,1036.55l-15.74-16.72,15.74-16.73,15.74,16.73-15.74,16.72ZM2514.88,1056.51l-15.74-16.73,15.74-16.73,15.74,16.73-15.74,16.73ZM2549.39,1059.73l-15.74,16.72-15.74-16.72,15.74-16.72,15.74,16.72ZM2568.16,1039.78l-15.74,16.73-15.74-16.73,15.74-16.73,15.74,16.73ZM2586.94,1019.83l-15.74,16.72-15.74-16.72,15.74-16.73,15.74,16.73ZM2605.71,999.88l-15.74,16.73-15.74-16.73,15.74-16.73,15.74,16.73ZM2608.74,963.19l15.74,16.73-15.74,16.72-15.74-16.72,15.74-16.73ZM2589.97,943.24l15.74,16.73-15.74,16.72-15.74-16.72,15.74-16.73ZM2571.19,923.29l15.74,16.73-15.74,16.72-15.74-16.72,15.74-16.73ZM2552.43,903.34l15.74,16.72-15.74,16.73-15.74-16.73,15.74-16.72ZM2517.91,900.11l15.74-16.72,15.74,16.72-15.74,16.73-15.74-16.73ZM2499.14,920.06l15.74-16.72,15.74,16.72-15.74,16.73-15.74-16.73ZM2480.37,940.02l15.74-16.73,15.74,16.73-15.74,16.72-15.74-16.72ZM2477.34,976.7l-15.74-16.72,15.74-16.73,15.74,16.73-15.74,16.72ZM2496.11,996.65l-15.74-16.72,15.74-16.73,15.74,16.73-15.74,16.72ZM2514.88,1016.6l-15.74-16.73,15.74-16.73,15.74,16.73-15.74,16.73ZM2549.39,1019.83l-15.74,16.72-15.74-16.72,15.74-16.73,15.74,16.73ZM2568.16,999.88l-15.74,16.73-15.74-16.73,15.74-16.73,15.74,16.73ZM2571.19,963.19l15.74,16.73-15.74,16.72-15.74-16.72,15.74-16.73ZM2552.43,943.24l15.74,16.73-15.74,16.72-15.74-16.72,15.74-16.73ZM2517.91,940.02l15.74-16.73,15.74,16.73-15.74,16.72-15.74-16.72ZM2533.65,963.19l15.74,16.73-15.74,16.72-15.74-16.72,15.74-16.73ZM2514.88,976.7l-15.74-16.72,15.74-16.73,15.74,16.73-15.74,16.72ZM2402.24,943.24l15.74,16.73-15.74,16.72-15.74-16.72,15.74-16.73ZM2361.67,979.92l-7.87,8.36,3.04,3.23,7.87-8.37,15.74,16.73-7.87,8.36,3.03,3.22,7.87-8.36,15.74,16.73-7.87,8.36,3.03,3.23,7.87-8.37,15.74,16.73-7.87,8.36,3.03,3.22,7.87-8.36,15.74,16.72-7.87,8.37,3.03,3.22,7.87-8.37,15.74,16.73-7.87,8.36,3.03,3.22,7.87-8.36,15.74,16.72-7.87,8.37,3.03,3.22,7.87-8.37,15.74,16.73-7.87,8.36,3.04,3.22,7.86-8.36,15.74,16.72-7.87,8.37,3.03,3.22,7.87-8.37,15.74,16.73-7.87,8.36,3.04,3.23,7.86-8.36,7.87,8.36,3.03-3.23-7.86-8.36,15.74-16.73,7.87,8.37,3.03-3.22-7.87-8.37,15.74-16.72,7.87,8.36,3.03-3.22-7.86-8.36,15.74-16.73,7.87,8.37,3.03-3.22-7.87-8.37,15.74-16.72,7.87,8.36,3.03-3.22-7.86-8.36,15.74-16.73,7.87,8.37,3.03-3.22-7.87-8.37,15.74-16.72,7.87,8.36,3.04-3.22-7.87-8.36,15.74-16.73,7.87,8.37,3.03-3.23-7.87-8.36,15.74-16.73,7.87,8.36,3.04-3.22-7.87-8.36,15.74-16.73,7.87,8.37,3.03-3.23-7.87-8.36,7.87-8.37-3.03-3.22-7.87,8.36-15.74-16.72,7.87-8.37-3.04-3.22-7.87,8.36-15.74-16.72,7.87-8.37-3.03-3.22-7.87,8.36-15.74-16.73,7.87-8.36-3.04-3.22-7.87,8.36-15.74-16.73,7.87-8.36-3.03-3.22-7.87,8.36-15.74-16.73,7.86-8.36-3.03-3.22-7.87,8.36-15.74-16.73,7.87-8.36-3.03-3.23-7.87,8.37-15.74-16.73,7.86-8.36-3.03-3.22-7.87,8.36-15.74-16.73,7.87-8.36-3.03-3.23-7.87,8.37-15.74-16.73,7.86-8.36-3.03-3.22-7.87,8.36-7.86-8.36-3.04,3.22,7.87,8.36-15.74,16.73-7.87-8.37-3.03,3.23,7.87,8.36-15.74,16.73-7.86-8.36-3.04,3.22,7.87,8.36-15.74,16.73-7.87-8.37-3.03,3.23,7.87,8.36-15.74,16.73-7.87-8.36-3.03,3.22,7.87,8.36-15.74,16.73-7.87-8.36-3.03,3.22,7.87,8.36-15.74,16.73-7.87-8.36-3.03,3.22,7.87,8.36-15.74,16.73-7.87-8.36-3.03,3.22,7.87,8.37-15.74,16.72-7.87-8.36-3.03,3.22,7.87,8.37-15.74,16.72-7.87-8.36-3.04,3.22,7.87,8.37Z"/>
                  </g>
                </g>
                <g class="st27">
                  <path d="M2588.73,1058.68c-26.66,0-54.68-12.33-73.54-32.37-18.04-19.17-31.62-50.63-30.46-78.16.06-1.58.2-3.15.32-4.71h-22.74v98.63c0,12.59,9.61,22.8,21.46,22.8h99.76c5.94,0,11.31-2.56,15.2-6.7-3.28.34-6.61.52-10,.52"/>
                </g>
                <path class="st8" d="M2535.24,954.44l.03.03c.34.39,4.02,4.49,10.09,8.44,6.07,3.96,14.51,7.76,24.46,7.75,10.27-.01,22.26-3.98,35.36-16.39.88-.84,2.24-.76,3.03.18.79.94.71,2.38-.17,3.22-13.71,13.04-26.87,17.57-38.22,17.56-11.35,0-20.76-4.45-27.33-8.84-6.57-4.4-10.33-8.78-10.42-8.88-.8-.93-.74-2.37.14-3.22.87-.85,2.23-.78,3.03.15"/>
                <path class="st8" d="M2535.24,957.51c-.09.1-3.85,4.48-10.41,8.88-6.56,4.39-15.98,8.84-27.33,8.84-11.34,0-24.5-4.52-38.22-17.56-.88-.84-.96-2.28-.17-3.22.79-.94,2.15-1.02,3.03-.18,13.1,12.42,25.09,16.38,35.36,16.39,10.26,0,18.93-4.04,25.04-8.14,3.05-2.04,5.46-4.09,7.09-5.62.81-.76,1.44-1.4,1.85-1.83.21-.22.36-.39.45-.5l.11-.12.02-.03c.8-.93,2.15-1,3.03-.15.87.85.94,2.29.14,3.22"/>
                <g class="st27">
                  <path d="M2459.28,955.39c13.72,13.04,26.88,17.57,38.22,17.56,11.35,0,20.77-4.44,27.33-8.84,4.12-2.76,7.14-5.51,8.83-7.2,1.7,1.69,4.71,4.44,8.83,7.2,6.56,4.39,15.98,8.83,27.33,8.84,11.35.01,24.5-4.51,38.22-17.56.17-.16.27-.35.38-.54.5.91.38,2.09-.38,2.83-13.72,13.04-26.87,17.57-38.22,17.56-11.34,0-20.76-4.45-27.33-8.84-4.12-2.77-7.13-5.51-8.83-7.21-1.69,1.7-4.71,4.44-8.83,7.21-6.56,4.39-15.98,8.83-27.33,8.84-11.34.01-24.5-4.52-38.22-17.56-.77-.74-.88-1.92-.38-2.83.11.19.22.39.38.54"/>
                </g>
                <path class="st11" d="M2444.02,981.26c0,8.55,6.52,15.48,14.56,15.48s14.56-6.93,14.56-15.48-14.56-28.99-14.56-28.99c0,0-14.56,20.44-14.56,28.99"/>
                <g class="st27">
                  <path d="M2458.57,952.27s.23.32.63.89c-4.32,6.67-10.9,17.78-10.9,23.53,0,8.55,6.52,15.48,14.56,15.48,2.93,0,5.64-.92,7.92-2.5-2.59,4.24-7.09,7.06-12.21,7.06-8.04,0-14.56-6.93-14.56-15.47s14.56-28.99,14.56-28.99"/>
                </g>
                <g class="st27">
                  <path class="st8" d="M2462.42,974.54c1.4,4.27,3.84,7.23,5.47,6.63,1.63-.61,1.82-4.54.43-8.81-1.4-4.26-3.84-7.23-5.47-6.63-1.63.61-1.82,4.55-.43,8.81"/>
                </g>
                <path class="st11" d="M2519.12,981.26c0,8.55,6.52,15.48,14.56,15.48s14.56-6.93,14.56-15.48-14.56-28.99-14.56-28.99c0,0-14.56,20.44-14.56,28.99"/>
                <g class="st27">
                  <path d="M2533.65,952.27s.23.32.63.89c-4.32,6.67-10.9,17.78-10.9,23.53,0,8.55,6.52,15.48,14.56,15.48,2.92,0,5.64-.92,7.92-2.5-2.59,4.24-7.09,7.06-12.21,7.06-8.04,0-14.56-6.93-14.56-15.47s14.56-28.99,14.56-28.99"/>
                </g>
                <g class="st27">
                  <path class="st8" d="M2537.52,974.54c1.39,4.26,3.84,7.23,5.47,6.63,1.63-.61,1.81-4.54.42-8.81s-3.84-7.23-5.47-6.64c-1.63.61-1.82,4.55-.42,8.81"/>
                </g>
                <path class="st11" d="M2594.18,981.26c0,8.55,6.52,15.48,14.57,15.48s14.55-6.93,14.55-15.48-14.55-28.99-14.55-28.99c0,0-14.57,20.44-14.57,28.99"/>
                <g class="st27">
                  <path d="M2608.75,952.27s.22.32.62.89c-4.32,6.67-10.89,17.78-10.89,23.53,0,8.55,6.52,15.48,14.56,15.48,2.92,0,5.64-.92,7.92-2.5-2.59,4.24-7.09,7.06-12.21,7.06-8.05,0-14.57-6.93-14.57-15.47s14.57-28.99,14.57-28.99"/>
                </g>
                <g class="st27">
                  <path class="st8" d="M2612.61,974.54c1.39,4.26,3.84,7.23,5.47,6.63,1.63-.61,1.81-4.54.42-8.81s-3.84-7.23-5.47-6.64c-1.63.61-1.82,4.55-.42,8.81"/>
                </g>
                <rect class="st15" x="2455.88" y="938.87" width="155.54" height="17.1"/>
                <g class="st27">
                  <path d="M2469.83,938.88v13.11h141.6v4h-155.54v-17.1h13.95Z"/>
                </g>
              </g>
            </g>
            <path class="st6" d="M2234.43.09c57.01.52,111.04,27.32,158.74,59.58,24.61,16.67,47.74,35.55,68.97,56.37,0,0,32.14-4.56,61.41-5.24,24.58-.57,49.19,1.08,73.59,4.8,0,0,5.2-4.03,10.33-8.81,51.12-47.3,112.16-87.08,178.08-101.87,44.14-9.9,94.38-3.11,124.89,29.65,42.83,46.03,49.01,118.8,42.9,189.29-4.29,49.57-15.2,98.75-35.01,144.18,0,0,12.43,31.85,19.78,62.04,25.74,105.55,13.16,224.63-63.55,300.36-68.53,67.65-170.48,91.88-265.41,99.99-81.44,6.96-164.08,5.46-244.36-11.34-86.86-18.18-172.85-61.44-215.35-141.01-48.32-90.39-41.56-205.26-4.07-301.65,0,0-1.78-3.99-3.71-8.35-37.41-85.71-50.5-187.26-25.38-271.72,15.02-50.62,54.83-94.51,113.55-96.22,1.53-.04,3.09-.05,4.62-.05ZM2232.32,21.63c-30.25.41-59.81,14.91-76.68,39.73-39.52,58.18-34.39,139.67-20.47,211.41,6.47,33.15,15.92,65.75,30.54,96.06l1.78,3.97c1.82,8.82,1.09,3.15-3.78,15.88-42.32,112.77-38.9,250.68,44.21,331.89,66.1,64.59,165.32,83.84,254.76,89.71,95.48,6.25,193.02,2.29,282.97-28.39,65.15-22.22,126.05-63.91,156.7-126.31,42.28-86.21,32.14-193.49-6-282.78,0,0-1.82-4,3.27-15.78,35.96-84.45,48.86-185.97,19.81-265.42-11.16-30.51-33.45-58.31-65.48-66.64-48.79-12.69-102.17,9.08-148.52,35.88-34.39,19.87-66.1,44.31-94.28,72.26l-3.09,2.89c-5.67,3.46,1.16,3.25-16.29.59-43.48-6.39-87.84-5.56-130.71,2.28,0,0-7.64-1.16-14.03-7.46-58.72-57.59-132.52-108.45-211.71-109.76-1.02,0-2-.01-3.02,0Z"/>
          </g>
        </g>
      </g>
    </g>
    <g class="st1">
      <g id="Expanded_Art">
        <g id="Extended_Art">
          <path class="st0" d="M2103.44,1045.73h357.68l2.3,1.25c.86,8.88,7.2,14.29,15,16.24,10.99,2.75,100.62,2.86,111.24,0,5.85-1.58,16.52-11.52,16.52-17.49h322.21v-397.07c32.73-81.11,26.96-169.69,0-252.15v-53.98c29.25-82.22,46.01-205.35,0-283.7V.03h288.73v820.82l-386.22,458.51h-727.45v-233.63Z"/>
        </g>
        <path class="st16" d="M3217.12,820.85v458.51h-259.98c-18.34-1.52-14.47-25.08-19.37-38.73-4.38,4.96-5.36,30.07-8.12,33.11-2.38,2.62-25.39,2.03-30,5.62h-68.75l386.22-458.51ZM3144,982.01l-13.75,48.72-46.87,10.62c.1,2.62,41.57,11.83,45.62,14.37,7.29,4.58,13.96,39.7,18.75,48.72,3.57-7.98,4.79-39.11,8.12-44.35,2.59-4.06,42.1-9.64,48.75-13.74-6.19-3.93-45.22-9.79-47.5-12.49-3.4-4.04-9.12-44.05-13.12-51.85ZM3097.75,1145.68c-5.95,11.99-9.63,31.08-16.87,41.85-4.84,7.2-47.22,40.7-46.25,43.73l53.12-14.37,28.75,49.97-.62-55.6,50-17.49c-10.26-4.19-48.58-5.05-55.62-9.37-4.07-2.49-9.7-32.8-12.5-38.73Z"/>
        <path class="st8" d="M2899.64,1279.36c4.61-3.59,27.62-3,30-5.62,2.77-3.04,3.75-28.15,8.12-33.11,4.91,13.65,1.03,37.21,19.37,38.73h-57.5Z"/>
        <path class="st15" d="M2485.92,1045.73h7.5c-2.34,4.52-8.81,9.3-11.25,13.12-1.88,2.94,7.59,4.88-3.75,4.37-7.8-1.95-14.14-7.36-15-16.24l-.82-1.25h5.82c7.71,10.62,9.83,10.55,17.5,0Z"/>
        <path class="st8" d="M3097.75,1145.68c2.8,5.93,8.43,36.24,12.5,38.73,7.05,4.32,45.36,5.18,55.62,9.37l-50,17.49.62,55.6-28.75-49.97-53.12,14.37c-.98-3.03,41.41-36.52,46.25-43.73,7.24-10.78,10.92-29.87,16.87-41.85Z"/>
        <path class="st13" d="M2534.67,1045.73h7.62c0,.89,7.73,10.05,13.63,6.25l5,1.25c-1.97,2.84-5.41,7.29-1.87,9.99-14.17,3.53-15.51-8.33-24.37-17.49Z"/>
        <polygon class="st3" points="2579.83 1045.73 2600.11 1045.73 2590.29 1055.72 2579.83 1045.73"/>
        <path class="st13" d="M2600.11,1045.73h6.07c0,5.97-10.67,15.91-16.52,17.49-13.78,1.07-4.65-4.12-5-6.87-.17-1.32-10.91-9.86-10.91-10.62h6.08l10.46,9.99,9.82-9.99Z"/>
        <path class="st13" d="M2562.57,1045.73h6.07c0,1.78-6.74,6.09-7.72,7.5l-5-1.25c.38-.25,6.65-5.79,6.65-6.25Z"/>
        <path class="st3" d="M2542.29,1045.73h20.28c0,.46-6.27,6-6.65,6.25-5.9,3.81-13.63-5.36-13.63-6.25Z"/>
        <polygon class="st12" points="2505.92 1045.73 2523.42 1045.73 2515.29 1055.72 2505.92 1045.73"/>
        <path class="st8" d="M3144,982.01c4,7.8,9.73,47.81,13.12,51.85,2.28,2.71,41.3,8.57,47.5,12.49-6.64,4.1-46.16,9.68-48.75,13.74-3.34,5.24-4.55,36.38-8.12,44.35-4.79-9.02-11.45-44.15-18.75-48.72-4.05-2.54-45.52-11.74-45.62-14.37l46.87-10.62,13.75-48.72Z"/>
        <polygon class="st13" points="2461.12 1045.73 2462.6 1045.73 2463.42 1046.98 2461.12 1045.73"/>
        <path class="st7" d="M2928.39,553.49v-47.48,47.48Z"/>
        <path class="st15" d="M2523.42,1045.73h7.5c-1.47,4.35-9.81,10.16-11.25,13.12-.84,1.72,3.66,3.61,1.87,4.37-12.79,5.49-16.46-10.88-25.62-17.49h10l9.37,9.99,8.12-9.99Z"/>
        <path class="st6" d="M2928.39,506.01v-109.51c26.96,82.46,32.73,171.05,0,252.15v-142.65Z"/>
        <path class="st13" d="M2530.92,1045.73h3.75c8.86,9.16,10.2,21.02,24.37,17.49-3.53-2.71-.1-7.16,1.87-9.99.98-1.41,7.72-5.71,7.72-7.5h5.12c0,.76,10.74,9.3,10.91,10.62.35,2.75-8.78,7.94,5,6.87-10.63,2.86-100.26,2.75-111.24,0,11.34.5,1.87-1.44,3.75-4.37,2.44-3.82,8.91-8.6,11.25-13.12h2.5c9.16,6.61,12.83,22.98,25.62,17.49,1.78-.76-2.71-2.65-1.87-4.37,1.44-2.95,9.78-8.76,11.25-13.12Z"/>
        <path class="st7" d="M2928.39,262.22V122.25c10.43,46.57,8.76,93.27,0,139.97Z"/>
        <path class="st5" d="M2103.44,1045.73h357.68l2.3,1.25c.86,8.88,7.2,14.29,15,16.24,10.99,2.75,100.62,2.86,111.24,0,5.85-1.58,16.52-11.52,16.52-17.49h322.21v-397.07c32.73-81.11,26.96-169.69,0-252.15v-53.98c29.25-82.22,46.01-205.35,0-283.7V.03h288.73v820.82l-386.22,458.51h-727.45v-233.63Z"/>
        <path class="st17" d="M2468.42,1045.73h17.5c-7.67,10.55-9.79,10.62-17.5,0Z"/>
        <path class="st6" d="M2928.39,122.25v-63.43c46.01,78.35,29.25,201.48,0,283.7v-80.31c8.76-46.7,10.43-93.4,0-139.97Z"/>
      </g>
    </g>
  </g>
  <g>
    <path class="st28" d="M-900.03,1250.08v368.6c0,73.59-59.66,133.24-133.24,133.24h-1619.05c-73.59,0-133.25-59.66-133.25-133.25v-368.58c0-73.59,59.66-133.25,133.25-133.25h465.97c14.36,0,26-11.64,26-26v-465.98c0-73.47,59.78-133.24,133.25-133.24h368.59c73.48,0,133.25,59.78,133.25,133.24v465.98c0,14.36,11.64,26,26,26h465.98c73.59,0,133.24,59.66,133.24,133.24Z"/>
    <g>
      <rect class="st10" x="-2129.14" y="522.81" width="572.68" height="572.68" rx="-491.89" ry="-491.89"/>
      <rect class="st26" x="-2088.95" y="548.8" width="492.3" height="492.3" rx="-552.18" ry="-552.18"/>
      <path class="st8" d="M-1779.83,744.31h-22.61v196.01c0,6.72-5.44,12.18-12.18,12.18h-56.38c-6.73,0-12.18-5.46-12.18-12.18v-196.01h-22.61c-10.08,0-15.8-11.56-9.68-19.57l62.97-82.55c4.88-6.39,14.5-6.39,19.37,0l62.97,82.55c6.12,8.01.41,19.57-9.68,19.57Z"/>
    </g>
    <g>
      <rect class="st10" x="-2129.14" y="1148.04" width="572.68" height="572.68" rx="-491.89" ry="-491.89"/>
      <rect class="st26" x="-2088.95" y="1174.03" width="492.3" height="492.3" rx="-552.18" ry="-552.18"/>
      <path class="st8" d="M-1779.83,1470.81h-22.61v-196.01c0-6.72-5.44-12.18-12.18-12.18h-56.38c-6.73,0-12.18,5.46-12.18,12.18v196.01h-22.61c-10.08,0-15.8,11.56-9.68,19.57l62.97,82.55c4.88,6.39,14.5,6.39,19.37,0l62.97-82.55c6.12-8.01.41-19.57-9.68-19.57Z"/>
    </g>
    <g>
      <rect class="st10" x="-2754.37" y="1148.04" width="572.68" height="572.68" rx="-804.5" ry="-804.5"/>
      <rect class="st26" x="-2714.18" y="1174.03" width="492.3" height="492.3" rx="-864.79" ry="-864.79"/>
      <path class="st8" d="M-2518.67,1483.15v-22.61s196.01,0,196.01,0c6.72,0,12.18-5.44,12.18-12.18v-56.38c0-6.73-5.46-12.18-12.18-12.18h-196.01s0-22.61,0-22.61c0-10.08-11.56-15.8-19.57-9.68l-82.55,62.97c-6.39,4.88-6.39,14.5,0,19.37l82.55,62.97c8.01,6.12,19.57.41,19.57-9.68Z"/>
    </g>
    <g>
      <rect class="st10" x="-1503.92" y="1148.04" width="572.68" height="572.68" rx="-179.28" ry="-179.28" transform="translate(-2435.15 2868.76) rotate(-180)"/>
      <rect class="st26" x="-1463.73" y="1174.03" width="492.3" height="492.3" rx="-239.56" ry="-239.56" transform="translate(-2435.15 2840.35) rotate(-180)"/>
      <path class="st8" d="M-1166.94,1483.15v-22.61s-196.01,0-196.01,0c-6.72,0-12.18-5.44-12.18-12.18v-56.38c0-6.73,5.46-12.18,12.18-12.18h196.01s0-22.61,0-22.61c0-10.08,11.56-15.8,19.57-9.68l82.55,62.97c6.39,4.88,6.39,14.5,0,19.37l-82.55,62.97c-8.01,6.12-19.57.41-19.57-9.68Z"/>
    </g>
  </g>
</svg>