<?xml version="1.0" encoding="UTF-8" standalone="no"?>
<!DOCTYPE svg PUBLIC "-//W3C//DTD SVG 1.1//EN" "http://www.w3.org/Graphics/SVG/1.1/DTD/svg11.dtd">
<svg width="100%" height="100%" viewBox="0 0 71 90" version="1.1" xmlns="http://www.w3.org/2000/svg" xmlns:xlink="http://www.w3.org/1999/xlink" xml:space="preserve" xmlns:serif="http://www.serif.com/" style="fill-rule:evenodd;clip-rule:evenodd;stroke-linejoin:round;stroke-miterlimit:2;">
    <g transform="matrix(1,0,0,1,-3865,-2497)">
        <g id="player" transform="matrix(1.00542,0,0,1.27448,-21.0707,-685.693)">
            <rect x="3865.12" y="2497.25" width="70.617" height="70.617" style="fill:none;"/>
            <clipPath id="_clip1">
                <rect x="3865.12" y="2497.25" width="70.617" height="70.617"/>
            </clipPath>
            <g clip-path="url(#_clip1)">
                <g transform="matrix(1.69131,0,-8.16866e-16,0.811572,5773.42,2611.08)">
                    <g transform="matrix(0.726379,0,0,1.19419,-3338.41,29.2877)">
                        <g transform="matrix(0.245292,0,0,0.245292,2992.93,-175.347)">
                            <path d="M307.741,395.157L284.366,357.684" style="fill:none;"/>
                        </g>
                        <g transform="matrix(0.245292,0,0,0.245292,2992.93,-175.347)">
                            <path d="M284.473,355.383C285.239,355.45 285.744,355.619 286.32,356.465L309.696,393.938C310.89,396.036 307.68,399.154 305.787,396.376L282.412,358.903C282.112,358.377 282.094,358.194 282.069,357.855C281.952,356.286 284.174,355.381 284.473,355.383Z" style="fill:rgb(13,74,106);"/>
                        </g>
                        <g transform="matrix(-0.245292,0,0,0.245292,3150.27,-175.347)">
                            <path d="M307.741,395.157L284.366,357.684" style="fill:none;"/>
                        </g>
                        <g transform="matrix(-0.245292,0,0,0.245292,3150.27,-175.347)">
                            <path d="M284.102,355.396C283.539,355.484 283.453,355.553 283.226,355.682C282.142,356.299 281.643,357.553 282.411,358.903L305.787,396.376C306.476,397.387 306.787,397.31 307.267,397.411C309,397.776 310.695,395.694 309.696,393.938L286.32,356.465C285.817,355.726 285.023,355.327 284.102,355.396Z" style="fill:rgb(13,74,106);"/>
                        </g>
                        <g transform="matrix(0.245292,0,0,0.245292,3509.67,-228.778)">
                            <path d="M-1766.88,388.868C-1745.74,367.593 -1711.19,348.934 -1690.64,360.284C-1665.67,374.068 -1670.22,427.206 -1683.12,455.234C-1677.27,468.88 -1674.03,483.921 -1674.03,499.719C-1674.03,561.781 -1726.03,580.23 -1787.68,580.23C-1849.32,580.23 -1897.42,561.781 -1897.42,499.719C-1897.42,484.694 -1894.48,470.354 -1889.16,457.247C-1902.79,429.834 -1908.19,374.406 -1882.61,360.284C-1861.97,348.885 -1827.22,367.753 -1806.1,389.141C-1799.49,387.913 -1792.68,387.271 -1785.72,387.271C-1779.3,387.271 -1773.01,387.818 -1766.88,388.868Z" style="fill:rgb(221,221,221);"/>
                            <clipPath id="_clip2">
                                <path d="M-1766.88,388.868C-1745.74,367.593 -1711.19,348.934 -1690.64,360.284C-1665.67,374.068 -1670.22,427.206 -1683.12,455.234C-1677.27,468.88 -1674.03,483.921 -1674.03,499.719C-1674.03,561.781 -1726.03,580.23 -1787.68,580.23C-1849.32,580.23 -1897.42,561.781 -1897.42,499.719C-1897.42,484.694 -1894.48,470.354 -1889.16,457.247C-1902.79,429.834 -1908.19,374.406 -1882.61,360.284C-1861.97,348.885 -1827.22,367.753 -1806.1,389.141C-1799.49,387.913 -1792.68,387.271 -1785.72,387.271C-1779.3,387.271 -1773.01,387.818 -1766.88,388.868Z"/>
                            </clipPath>
                            <g clip-path="url(#_clip2)">
                                <g transform="matrix(3.97064,-0.924213,0.924213,3.97064,-2773.15,-728.647)">
                                    <ellipse cx="154.883" cy="343.079" rx="14.208" ry="38.124" style="fill:white;fill-opacity:0.36;"/>
                                </g>
                            </g>
                        </g>
                        <g transform="matrix(0.633374,0,0,0.633374,2852.92,-304.122)">
                            <circle cx="327.154" cy="300.425" r="10.185" style="fill:rgb(13,74,106);"/>
                        </g>
                        <g transform="matrix(0.245292,0,0,0.245292,2992.93,-175.347)">
                            <path d="M226.557,224.449L274.755,177.084C274.755,177.084 247.823,145.887 233.565,150.457C219.308,155.026 218.301,193.55 226.557,224.449Z" style="fill:rgb(13,74,106);"/>
                        </g>
                        <g transform="matrix(-0.245292,0,0,0.245292,3150.04,-175.347)">
                            <path d="M226.557,224.449L274.755,177.084C274.755,177.084 247.823,145.887 233.565,150.457C219.308,155.026 218.301,193.55 226.557,224.449Z" style="fill:rgb(13,74,106);"/>
                        </g>
                        <g transform="matrix(0.633374,0,0,0.633374,2875.92,-304.122)">
                            <circle cx="327.154" cy="300.425" r="10.185" style="fill:rgb(13,74,106);"/>
                        </g>
                        <g transform="matrix(0.245292,0,0,0.245292,2977.86,-189.731)">
                            <circle cx="327.154" cy="300.425" r="10.185" style="fill:white;"/>
                        </g>
                        <g transform="matrix(0.150046,0,0,0.150046,3012.98,-155.013)">
                            <circle cx="327.154" cy="300.425" r="10.185" style="fill:white;"/>
                        </g>
                        <g transform="matrix(0.136025,0,0,0.0955163,3027.17,-134.014)">
                            <path d="M327.154,290.24C332.775,290.24 337.339,294.804 337.339,300.425C337.339,306.046 332.775,314.391 327.154,314.391C321.533,314.391 316.97,306.046 316.97,300.425C316.97,294.804 321.533,290.24 327.154,290.24Z" style="fill:rgb(13,74,106);"/>
                        </g>
                        <g transform="matrix(0.0294022,0.243523,-0.243523,0.0294022,3149.57,-204.088)">
                            <circle cx="327.154" cy="300.425" r="10.185" style="fill:white;"/>
                        </g>
                        <g transform="matrix(0.0179854,0.148964,-0.148964,0.0179854,3119.31,-165.056)">
                            <circle cx="327.154" cy="300.425" r="10.185" style="fill:white;"/>
                        </g>
                        <g transform="matrix(0.245292,0,0,0.245292,2992.93,-175.347)">
                            <path d="M321.264,288.328C322.283,288.381 322.391,288.62 322.68,288.862C325.926,291.571 318.971,298.811 314.254,298.964C310.23,299.094 306.063,297.271 303.907,294.076C302.558,292.076 305.446,289.531 308.099,291.732C310.184,293.426 312.859,294.873 315.122,294.198C317.601,293.458 319.144,289.6 319.144,289.6C319.567,288.807 320.101,288.328 321.264,288.328Z" style="fill:rgb(13,74,106);"/>
                        </g>
                        <g transform="matrix(-0.245292,0,0,0.245292,3150.72,-175.347)">
                            <path d="M321.027,288.334C318.398,288.606 318.393,293.467 314.872,294.263C311.945,294.925 309.152,292.734 307.335,291.056C307.335,291.056 303.273,289.832 303.52,292.969C303.545,293.284 303.636,293.594 303.785,293.873C306.207,298.408 314.946,300.721 319.522,296.947C321.202,295.562 322.37,293.671 323.249,291.703C323.249,291.703 323.602,288.201 321.027,288.334Z" style="fill:rgb(13,74,106);"/>
                        </g>
                        <g transform="matrix(0.308599,0,0,0.327997,3497.97,-241.126)">
                            <g>
                                <g transform="matrix(1,0,0,1,-1397,521.317)">
                                    <path d="M0,-24.353L0,-4.691C0,-2.101 2.1,0 4.69,0L26.5,0C29.091,0 31.19,-2.101 31.19,-4.691L31.19,-24.353L0,-24.353Z" style="fill:rgb(135,89,37);fill-rule:nonzero;"/>
                                </g>
                                <g transform="matrix(1,0,0,1,-1729.74,122.604)">
                                    <clipPath id="_clip3">
                                        <path d="M332.738,373.61L332.738,394.022C332.738,396.613 334.838,398.713 337.429,398.713L359.239,398.713C361.829,398.713 363.928,396.613 363.928,394.022L363.928,373.61L332.738,373.61Z" clip-rule="nonzero"/>
                                    </clipPath>
                                    <g clip-path="url(#_clip3)">
                                        <g opacity="0.15">
                                            <g transform="matrix(1,0,0,1,311.591,382.18)">
                                                <path d="M0,0L3.44,-3.44L6.882,0L3.44,3.44L0,0ZM4.104,4.104L7.545,0.663L10.985,4.104L7.545,7.545L4.104,4.104ZM8.208,8.208L11.648,4.768L15.09,8.208L11.648,11.648L8.208,8.208ZM12.313,12.312L15.753,8.871L19.193,12.313L15.753,15.753L12.313,12.312ZM16.416,16.416L19.857,12.976L23.298,16.416L19.857,19.856L16.416,16.416ZM20.521,20.521L23.961,17.079L27.401,20.521L23.961,23.961L20.521,20.521ZM24.624,24.624L28.065,21.184L31.506,24.624L28.065,28.064L24.624,24.624ZM28.729,28.729L32.169,25.287L35.61,28.729L32.169,32.169L28.729,28.729ZM32.832,32.832L36.273,29.392L39.714,32.832L36.273,36.273L32.832,32.832ZM40.377,32.169L36.937,28.729L40.377,25.287L43.818,28.729L40.377,32.169ZM44.481,28.064L41.041,24.624L44.481,21.184L47.922,24.624L44.481,28.064ZM48.585,23.961L45.145,20.521L48.585,17.079L52.026,20.521L48.585,23.961ZM52.689,19.856L49.249,16.416L52.689,12.976L56.13,16.416L52.689,19.856ZM56.794,15.753L53.353,12.313L56.794,8.871L60.234,12.313L56.794,15.753ZM60.897,11.648L57.457,8.208L60.897,4.768L64.338,8.208L60.897,11.648ZM65.002,7.545L61.561,4.104L65.002,0.663L68.442,4.104L65.002,7.545ZM69.105,3.44L65.665,0L69.105,-3.44L72.547,0L69.105,3.44ZM68.442,-4.104L65.002,-0.663L61.561,-4.104L65.002,-7.545L68.442,-4.104ZM64.338,-8.208L60.897,-4.768L57.457,-8.208L60.897,-11.649L64.338,-8.208ZM60.234,-12.313L56.794,-8.871L53.353,-12.313L56.794,-15.753L60.234,-12.313ZM56.13,-16.416L52.689,-12.976L49.249,-16.416L52.689,-19.857L56.13,-16.416ZM52.026,-20.521L48.585,-17.08L45.145,-20.521L48.585,-23.961L52.026,-20.521ZM47.922,-24.624L44.481,-21.184L41.041,-24.624L44.481,-28.065L47.922,-24.624ZM43.818,-28.729L40.377,-25.288L36.937,-28.729L40.377,-32.169L43.818,-28.729ZM39.714,-32.833L36.273,-29.392L32.832,-32.833L36.273,-36.273L39.714,-32.833ZM32.169,-32.169L35.61,-28.729L32.169,-25.288L28.729,-28.729L32.169,-32.169ZM28.065,-28.065L31.506,-24.624L28.065,-21.184L24.624,-24.624L28.065,-28.065ZM23.961,-23.961L27.401,-20.521L23.961,-17.08L20.521,-20.521L23.961,-23.961ZM19.857,-19.857L23.298,-16.416L19.857,-12.976L16.416,-16.416L19.857,-19.857ZM15.753,-15.753L19.193,-12.313L15.753,-8.872L12.313,-12.313L15.753,-15.753ZM11.648,-11.649L15.09,-8.208L11.648,-4.768L8.208,-8.208L11.648,-11.649ZM11.648,3.44L8.208,0L11.648,-3.44L15.09,0L11.648,3.44ZM15.753,7.545L12.313,4.104L15.753,0.663L19.193,4.104L15.753,7.545ZM19.857,11.648L16.416,8.208L19.857,4.768L23.298,8.208L19.857,11.648ZM23.961,15.753L20.521,12.312L23.961,8.871L27.401,12.313L23.961,15.753ZM28.065,19.856L24.624,16.416L28.065,12.976L31.506,16.416L28.065,19.856ZM32.169,23.961L28.729,20.521L32.169,17.079L35.61,20.521L32.169,23.961ZM39.714,24.624L36.273,28.064L32.832,24.624L36.273,21.184L39.714,24.624ZM43.818,20.521L40.377,23.961L36.937,20.521L40.377,17.079L43.818,20.521ZM47.922,16.416L44.481,19.856L41.041,16.416L44.481,12.976L47.922,16.416ZM52.026,12.313L48.585,15.753L45.145,12.312L48.585,8.871L52.026,12.313ZM56.13,8.208L52.689,11.648L49.249,8.208L52.689,4.768L56.13,8.208ZM60.234,4.104L56.794,7.545L53.353,4.104L56.794,0.663L60.234,4.104ZM60.897,-3.44L64.338,0L60.897,3.44L57.457,0L60.897,-3.44ZM56.794,-7.545L60.234,-4.104L56.794,-0.663L53.353,-4.104L56.794,-7.545ZM52.689,-11.649L56.13,-8.208L52.689,-4.768L49.249,-8.208L52.689,-11.649ZM48.585,-15.753L52.026,-12.313L48.585,-8.871L45.145,-12.313L48.585,-15.753ZM44.481,-19.857L47.922,-16.416L44.481,-12.976L41.041,-16.416L44.481,-19.857ZM40.377,-23.961L43.818,-20.521L40.377,-17.08L36.937,-20.521L40.377,-23.961ZM32.832,-24.624L36.273,-28.065L39.714,-24.624L36.273,-21.184L32.832,-24.624ZM28.729,-20.521L32.169,-23.961L35.61,-20.521L32.169,-17.08L28.729,-20.521ZM24.624,-16.416L28.065,-19.857L31.506,-16.416L28.065,-12.976L24.624,-16.416ZM20.521,-12.313L23.961,-15.753L27.401,-12.313L23.961,-8.872L20.521,-12.313ZM16.416,-8.208L19.857,-11.649L23.298,-8.208L19.857,-4.768L16.416,-8.208ZM15.753,-0.663L12.313,-4.104L15.753,-7.545L19.193,-4.104L15.753,-0.663ZM19.857,3.44L16.416,0L19.857,-3.44L23.298,0L19.857,3.44ZM23.961,7.545L20.521,4.104L23.961,0.663L27.401,4.104L23.961,7.545ZM28.065,11.648L24.624,8.208L28.065,4.768L31.506,8.208L28.065,11.648ZM32.169,15.753L28.729,12.312L32.169,8.871L35.61,12.313L32.169,15.753ZM39.714,16.416L36.273,19.856L32.832,16.416L36.273,12.976L39.714,16.416ZM43.818,12.313L40.377,15.753L36.937,12.312L40.377,8.871L43.818,12.313ZM47.922,8.208L44.481,11.648L41.041,8.208L44.481,4.768L47.922,8.208ZM52.026,4.104L48.585,7.545L45.145,4.104L48.585,0.663L52.026,4.104ZM52.689,-3.44L56.13,0L52.689,3.44L49.249,0L52.689,-3.44ZM48.585,-7.545L52.026,-4.104L48.585,-0.663L45.145,-4.104L48.585,-7.545ZM44.481,-11.649L47.922,-8.208L44.481,-4.768L41.041,-8.208L44.481,-11.649ZM40.377,-15.753L43.818,-12.313L40.377,-8.871L36.937,-12.313L40.377,-15.753ZM32.832,-16.416L36.273,-19.857L39.714,-16.416L36.273,-12.976L32.832,-16.416ZM28.729,-12.313L32.169,-15.753L35.61,-12.313L32.169,-8.871L28.729,-12.313ZM24.624,-8.208L28.065,-11.649L31.506,-8.208L28.065,-4.768L24.624,-8.208ZM23.961,-0.663L20.521,-4.104L23.961,-7.545L27.401,-4.104L23.961,-0.663ZM28.065,3.44L24.624,0L28.065,-3.44L31.506,0L28.065,3.44ZM32.169,7.545L28.729,4.104L32.169,0.663L35.61,4.104L32.169,7.545ZM39.714,8.208L36.273,11.648L32.832,8.208L36.273,4.768L39.714,8.208ZM43.818,4.104L40.377,7.545L36.937,4.104L40.377,0.663L43.818,4.104ZM44.481,-3.44L47.922,0L44.481,3.44L41.041,0L44.481,-3.44ZM40.377,-7.545L43.818,-4.104L40.377,-0.663L36.937,-4.104L40.377,-7.545ZM32.832,-8.208L36.273,-11.649L39.714,-8.208L36.273,-4.768L32.832,-8.208ZM36.273,-3.44L39.714,0L36.273,3.44L32.832,0L36.273,-3.44ZM32.169,-0.663L28.729,-4.104L32.169,-7.545L35.61,-4.104L32.169,-0.663ZM7.545,-7.545L10.985,-4.104L7.545,-0.663L4.104,-4.104L7.545,-7.545ZM-1.326,0L-3.047,1.721L-2.384,2.384L-0.663,0.663L2.777,4.104L1.057,5.824L1.721,6.487L3.44,4.768L6.882,8.208L5.161,9.929L5.824,10.592L7.545,8.871L10.985,12.313L9.266,14.032L9.929,14.695L11.648,12.976L15.09,16.416L13.369,18.137L14.032,18.8L15.753,17.079L19.193,20.521L17.474,22.24L18.137,22.904L19.857,21.184L23.298,24.624L21.577,26.345L22.24,27.008L23.961,25.287L27.401,28.729L25.682,30.448L26.345,31.112L28.065,29.392L31.506,32.832L29.785,34.553L30.448,35.216L32.169,33.496L35.61,36.937L33.89,38.657L34.553,39.32L36.273,37.6L37.993,39.32L38.657,38.656L36.937,36.937L40.377,33.496L42.098,35.216L42.761,34.553L41.041,32.832L44.481,29.392L46.202,31.112L46.865,30.448L45.145,28.729L48.585,25.287L50.306,27.008L50.969,26.345L49.249,24.624L52.689,21.184L54.41,22.904L55.073,22.24L53.353,20.521L56.794,17.079L58.514,18.8L59.177,18.137L57.457,16.416L60.897,12.976L62.618,14.695L63.281,14.032L61.561,12.313L65.002,8.871L66.722,10.592L67.385,9.929L65.665,8.208L69.105,4.768L70.826,6.487L71.489,5.824L69.769,4.104L73.21,0.663L74.93,2.384L75.594,1.72L73.873,0L75.594,-1.721L74.93,-2.384L73.21,-0.663L69.769,-4.104L71.489,-5.824L70.826,-6.488L69.105,-4.768L65.665,-8.208L67.385,-9.929L66.722,-10.592L65.002,-8.871L61.561,-12.313L63.281,-14.032L62.618,-14.696L60.897,-12.976L57.457,-16.416L59.177,-18.137L58.514,-18.8L56.794,-17.08L53.353,-20.521L55.073,-22.241L54.41,-22.904L52.689,-21.184L49.249,-24.624L50.969,-26.345L50.306,-27.008L48.585,-25.288L45.145,-28.729L46.865,-30.449L46.202,-31.112L44.481,-29.392L41.041,-32.833L42.761,-34.553L42.098,-35.216L40.377,-33.496L36.937,-36.937L38.657,-38.657L37.993,-39.32L36.273,-37.6L34.553,-39.32L33.89,-38.657L35.61,-36.937L32.169,-33.496L30.448,-35.216L29.785,-34.553L31.506,-32.833L28.065,-29.392L26.345,-31.112L25.682,-30.449L27.401,-28.729L23.961,-25.288L22.24,-27.008L21.577,-26.345L23.298,-24.624L19.857,-21.184L18.137,-22.904L17.474,-22.241L19.193,-20.521L15.753,-17.08L14.032,-18.8L13.369,-18.137L15.09,-16.416L11.648,-12.976L9.929,-14.696L9.266,-14.032L10.985,-12.313L7.545,-8.872L5.824,-10.592L5.161,-9.929L6.882,-8.208L3.44,-4.768L1.721,-6.488L1.057,-5.824L2.777,-4.104L-0.663,-0.663L-2.384,-2.384L-3.047,-1.721L-1.326,0Z" style="fill-rule:nonzero;"/>
                                            </g>
                                        </g>
                                        <g transform="matrix(1,0,0,1,312.06,381.241)">
                                            <path d="M0,0L3.44,-3.441L6.881,0L3.44,3.44L0,0ZM4.104,4.104L7.544,0.663L10.985,4.104L7.544,7.545L4.104,4.104ZM8.208,8.208L11.648,4.767L15.089,8.208L11.648,11.648L8.208,8.208ZM12.312,12.312L15.753,8.871L19.193,12.312L15.753,15.753L12.312,12.312ZM16.416,16.416L19.856,12.976L23.297,16.416L19.856,19.856L16.416,16.416ZM20.52,20.52L23.961,17.079L27.401,20.52L23.961,23.961L20.52,20.52ZM24.624,24.624L28.064,21.184L31.506,24.624L28.064,28.064L24.624,24.624ZM28.728,28.729L32.169,25.287L35.609,28.729L32.169,32.169L28.728,28.729ZM32.832,32.832L36.272,29.392L39.714,32.832L36.272,36.272L32.832,32.832ZM40.377,32.169L36.937,28.729L40.377,25.287L43.817,28.729L40.377,32.169ZM44.48,28.064L41.04,24.624L44.48,21.184L47.922,24.624L44.48,28.064ZM48.585,23.961L45.145,20.52L48.585,17.079L52.025,20.52L48.585,23.961ZM52.689,19.856L49.248,16.416L52.689,12.976L56.13,16.416L52.689,19.856ZM56.793,15.753L53.353,12.312L56.793,8.871L60.233,12.312L56.793,15.753ZM60.897,11.648L57.456,8.208L60.897,4.767L64.338,8.208L60.897,11.648ZM65.001,7.545L61.561,4.104L65.001,0.663L68.442,4.104L65.001,7.545ZM69.105,3.44L65.664,0L69.105,-3.441L72.546,0L69.105,3.44ZM68.442,-4.104L65.001,-0.664L61.561,-4.104L65.001,-7.545L68.442,-4.104ZM64.338,-8.208L60.897,-4.768L57.456,-8.208L60.897,-11.649L64.338,-8.208ZM60.233,-12.313L56.793,-8.872L53.353,-12.313L56.793,-15.753L60.233,-12.313ZM56.13,-16.417L52.689,-12.976L49.248,-16.417L52.689,-19.857L56.13,-16.417ZM52.025,-20.521L48.585,-17.08L45.145,-20.521L48.585,-23.961L52.025,-20.521ZM47.922,-24.625L44.48,-21.184L41.04,-24.625L44.48,-28.065L47.922,-24.625ZM43.817,-28.729L40.377,-25.288L36.937,-28.729L40.377,-32.17L43.817,-28.729ZM39.714,-32.833L36.272,-29.392L32.832,-32.833L36.272,-36.273L39.714,-32.833ZM32.169,-32.17L35.609,-28.729L32.169,-25.288L28.728,-28.729L32.169,-32.17ZM28.064,-28.065L31.506,-24.625L28.064,-21.184L24.624,-24.625L28.064,-28.065ZM23.961,-23.961L27.401,-20.521L23.961,-17.08L20.52,-20.521L23.961,-23.961ZM19.856,-19.857L23.297,-16.417L19.856,-12.976L16.416,-16.417L19.856,-19.857ZM15.753,-15.753L19.193,-12.313L15.753,-8.872L12.312,-12.313L15.753,-15.753ZM11.648,-11.649L15.089,-8.208L11.648,-4.768L8.208,-8.208L11.648,-11.649ZM11.648,3.44L8.208,0L11.648,-3.441L15.089,0L11.648,3.44ZM15.753,7.545L12.312,4.104L15.753,0.663L19.193,4.104L15.753,7.545ZM19.856,11.648L16.416,8.208L19.856,4.767L23.297,8.208L19.856,11.648ZM23.961,15.753L20.52,12.312L23.961,8.871L27.401,12.312L23.961,15.753ZM28.064,19.856L24.624,16.416L28.064,12.976L31.506,16.416L28.064,19.856ZM32.169,23.961L28.728,20.52L32.169,17.079L35.609,20.52L32.169,23.961ZM39.714,24.624L36.272,28.064L32.832,24.624L36.272,21.184L39.714,24.624ZM43.817,20.52L40.377,23.961L36.937,20.52L40.377,17.079L43.817,20.52ZM47.922,16.416L44.48,19.856L41.04,16.416L44.48,12.976L47.922,16.416ZM52.025,12.312L48.585,15.753L45.145,12.312L48.585,8.871L52.025,12.312ZM56.13,8.208L52.689,11.648L49.248,8.208L52.689,4.767L56.13,8.208ZM60.233,4.104L56.793,7.545L53.353,4.104L56.793,0.663L60.233,4.104ZM60.897,-3.441L64.338,0L60.897,3.44L57.456,0L60.897,-3.441ZM56.793,-7.545L60.233,-4.104L56.793,-0.664L53.353,-4.104L56.793,-7.545ZM52.689,-11.649L56.13,-8.208L52.689,-4.768L49.248,-8.208L52.689,-11.649ZM48.585,-15.753L52.025,-12.313L48.585,-8.872L45.145,-12.313L48.585,-15.753ZM44.48,-19.857L47.922,-16.417L44.48,-12.976L41.04,-16.417L44.48,-19.857ZM40.377,-23.961L43.817,-20.521L40.377,-17.08L36.937,-20.521L40.377,-23.961ZM32.832,-24.625L36.272,-28.065L39.714,-24.625L36.272,-21.184L32.832,-24.625ZM28.728,-20.521L32.169,-23.961L35.609,-20.521L32.169,-17.08L28.728,-20.521ZM24.624,-16.417L28.064,-19.857L31.506,-16.417L28.064,-12.976L24.624,-16.417ZM20.52,-12.313L23.961,-15.753L27.401,-12.313L23.961,-8.872L20.52,-12.313ZM16.416,-8.208L19.856,-11.649L23.297,-8.208L19.856,-4.768L16.416,-8.208ZM15.753,-0.664L12.312,-4.104L15.753,-7.545L19.193,-4.104L15.753,-0.664ZM19.856,3.44L16.416,0L19.856,-3.441L23.297,0L19.856,3.44ZM23.961,7.545L20.52,4.104L23.961,0.663L27.401,4.104L23.961,7.545ZM28.064,11.648L24.624,8.208L28.064,4.767L31.506,8.208L28.064,11.648ZM32.169,15.753L28.728,12.312L32.169,8.871L35.609,12.312L32.169,15.753ZM39.714,16.416L36.272,19.856L32.832,16.416L36.272,12.976L39.714,16.416ZM43.817,12.312L40.377,15.753L36.937,12.312L40.377,8.871L43.817,12.312ZM47.922,8.208L44.48,11.648L41.04,8.208L44.48,4.767L47.922,8.208ZM52.025,4.104L48.585,7.545L45.145,4.104L48.585,0.663L52.025,4.104ZM52.689,-3.441L56.13,0L52.689,3.44L49.248,0L52.689,-3.441ZM48.585,-7.545L52.025,-4.104L48.585,-0.664L45.145,-4.104L48.585,-7.545ZM44.48,-11.649L47.922,-8.208L44.48,-4.768L41.04,-8.208L44.48,-11.649ZM40.377,-15.753L43.817,-12.313L40.377,-8.872L36.937,-12.313L40.377,-15.753ZM32.832,-16.417L36.272,-19.857L39.714,-16.417L36.272,-12.976L32.832,-16.417ZM28.728,-12.313L32.169,-15.753L35.609,-12.313L32.169,-8.872L28.728,-12.313ZM24.624,-8.208L28.064,-11.649L31.506,-8.208L28.064,-4.768L24.624,-8.208ZM23.961,-0.664L20.52,-4.104L23.961,-7.545L27.401,-4.104L23.961,-0.664ZM28.064,3.44L24.624,0L28.064,-3.441L31.506,0L28.064,3.44ZM32.169,7.545L28.728,4.104L32.169,0.663L35.609,4.104L32.169,7.545ZM39.714,8.208L36.272,11.648L32.832,8.208L36.272,4.767L39.714,8.208ZM43.817,4.104L40.377,7.545L36.937,4.104L40.377,0.663L43.817,4.104ZM44.48,-3.441L47.922,0L44.48,3.44L41.04,0L44.48,-3.441ZM40.377,-7.545L43.817,-4.104L40.377,-0.664L36.937,-4.104L40.377,-7.545ZM32.832,-8.208L36.272,-11.649L39.714,-8.208L36.272,-4.768L32.832,-8.208ZM36.272,-3.441L39.714,0L36.272,3.44L32.832,0L36.272,-3.441ZM32.169,-0.664L28.728,-4.104L32.169,-7.545L35.609,-4.104L32.169,-0.664ZM7.544,-7.545L10.985,-4.104L7.544,-0.664L4.104,-4.104L7.544,-7.545ZM-1.327,0L-3.048,1.72L-2.384,2.384L-0.664,0.663L2.777,4.104L1.057,5.824L1.72,6.487L3.44,4.767L6.881,8.208L5.161,9.928L5.824,10.592L7.544,8.871L10.985,12.312L9.265,14.032L9.928,14.695L11.648,12.976L15.089,16.416L13.369,18.137L14.032,18.8L15.753,17.079L19.193,20.52L17.473,22.24L18.136,22.903L19.856,21.184L23.297,24.624L21.577,26.345L22.24,27.008L23.961,25.287L27.401,28.729L25.681,30.448L26.345,31.111L28.064,29.392L31.506,32.832L29.785,34.553L30.448,35.216L32.169,33.495L35.609,36.937L33.889,38.656L34.553,39.32L36.272,37.6L37.993,39.32L38.656,38.656L36.937,36.937L40.377,33.495L42.098,35.216L42.761,34.553L41.04,32.832L44.48,29.392L46.201,31.111L46.864,30.448L45.145,28.729L48.585,25.287L50.306,27.008L50.969,26.345L49.248,24.624L52.689,21.184L54.409,22.903L55.072,22.24L53.353,20.52L56.793,17.079L58.514,18.8L59.177,18.137L57.456,16.416L60.897,12.976L62.617,14.695L63.281,14.032L61.561,12.312L65.001,8.871L66.722,10.592L67.385,9.928L65.664,8.208L69.105,4.767L70.825,6.487L71.489,5.824L69.769,4.104L73.209,0.663L74.93,2.384L75.593,1.72L73.873,0L75.593,-1.721L74.93,-2.384L73.209,-0.664L69.769,-4.104L71.489,-5.825L70.825,-6.488L69.105,-4.768L65.664,-8.208L67.385,-9.929L66.722,-10.592L65.001,-8.872L61.561,-12.313L63.281,-14.033L62.617,-14.696L60.897,-12.976L57.456,-16.417L59.177,-18.137L58.514,-18.8L56.793,-17.08L53.353,-20.521L55.072,-22.241L54.409,-22.904L52.689,-21.184L49.248,-24.625L50.969,-26.345L50.306,-27.009L48.585,-25.288L45.145,-28.729L46.864,-30.449L46.201,-31.112L44.48,-29.392L41.04,-32.833L42.761,-34.553L42.098,-35.217L40.377,-33.496L36.937,-36.937L38.656,-38.657L37.993,-39.32L36.272,-37.601L34.553,-39.32L33.889,-38.657L35.609,-36.937L32.169,-33.496L30.448,-35.217L29.785,-34.553L31.506,-32.833L28.064,-29.392L26.345,-31.112L25.681,-30.449L27.401,-28.729L23.961,-25.288L22.24,-27.009L21.577,-26.345L23.297,-24.625L19.856,-21.184L18.136,-22.904L17.473,-22.241L19.193,-20.521L15.753,-17.08L14.032,-18.8L13.369,-18.137L15.089,-16.417L11.648,-12.976L9.928,-14.696L9.265,-14.033L10.985,-12.313L7.544,-8.872L5.824,-10.592L5.161,-9.929L6.881,-8.208L3.44,-4.768L1.72,-6.488L1.057,-5.825L2.777,-4.104L-0.664,-0.664L-2.384,-2.384L-3.048,-1.721L-1.327,0Z" style="fill:rgb(94,52,12);fill-rule:nonzero;"/>
                                        </g>
                                    </g>
                                </g>
                                <g transform="matrix(1,0,0,1,-1729.74,122.604)">
                                    <g opacity="0.15">
                                        <g transform="matrix(1,0,0,1,360.374,375.007)">
                                            <path d="M0,22.433C-5.829,22.433 -11.954,19.897 -16.077,15.774C-20.021,11.83 -22.99,5.36 -22.736,-0.303C-22.722,-0.629 -22.692,-0.95 -22.665,-1.272L-27.636,-1.272L-27.636,19.015C-27.636,21.605 -25.536,23.705 -22.945,23.705L-1.136,23.705C0.162,23.705 1.337,23.178 2.186,22.326C1.469,22.395 0.741,22.433 0,22.433" style="fill-rule:nonzero;"/>
                                        </g>
                                    </g>
                                </g>
                                <g transform="matrix(1,0,0,1,-1381.06,502.677)">
                                    <path d="M0,-4.074L0.006,-4.067C0.081,-3.986 0.884,-3.143 2.211,-2.33C3.539,-1.515 5.383,-0.734 7.558,-0.735C9.803,-0.738 12.424,-1.553 15.288,-4.107C15.481,-4.28 15.778,-4.263 15.95,-4.07C16.123,-3.877 16.106,-3.581 15.913,-3.408C12.915,-0.725 10.038,0.206 7.558,0.203C5.077,0.202 3.019,-0.712 1.584,-1.615C0.147,-2.52 -0.674,-3.421 -0.693,-3.442C-0.867,-3.634 -0.854,-3.93 -0.662,-4.104C-0.471,-4.279 -0.174,-4.265 0,-4.074" style="fill:white;fill-rule:nonzero;"/>
                                </g>
                                <g transform="matrix(1,0,0,1,-1381.06,502.045)">
                                    <path d="M0,-2.81C-0.02,-2.789 -0.841,-1.888 -2.276,-0.983C-3.711,-0.08 -5.77,0.835 -8.25,0.836C-10.73,0.838 -13.607,-0.093 -16.606,-2.776C-16.799,-2.949 -16.815,-3.245 -16.644,-3.438C-16.471,-3.631 -16.174,-3.648 -15.981,-3.475C-13.116,-0.92 -10.495,-0.106 -8.25,-0.103C-6.006,-0.102 -4.112,-0.934 -2.776,-1.777C-2.109,-2.197 -1.583,-2.619 -1.227,-2.932C-1.049,-3.089 -0.913,-3.219 -0.822,-3.308C-0.777,-3.353 -0.744,-3.388 -0.723,-3.411L-0.698,-3.435L-0.693,-3.442C-0.519,-3.633 -0.222,-3.647 -0.03,-3.472C0.161,-3.298 0.175,-3.001 0,-2.81" style="fill:white;fill-rule:nonzero;"/>
                                </g>
                                <g transform="matrix(1,0,0,1,-1729.74,122.604)">
                                    <g opacity="0.15">
                                        <g transform="matrix(1,0,0,1,332.073,380.167)">
                                            <path d="M0,-3.972C2.999,-1.289 5.876,-0.358 8.356,-0.361C10.837,-0.362 12.896,-1.275 14.33,-2.179C15.231,-2.746 15.89,-3.313 16.26,-3.66C16.631,-3.313 17.289,-2.746 18.19,-2.179C19.625,-1.275 21.684,-0.362 24.164,-0.361C26.645,-0.358 29.521,-1.289 32.52,-3.972C32.557,-4.004 32.58,-4.044 32.604,-4.084C32.714,-3.896 32.688,-3.654 32.52,-3.502C29.521,-0.82 26.645,0.112 24.164,0.109C21.684,0.108 19.625,-0.806 18.19,-1.709C17.289,-2.278 16.631,-2.843 16.26,-3.192C15.89,-2.843 15.231,-2.278 14.33,-1.709C12.896,-0.806 10.837,0.108 8.356,0.109C5.876,0.112 2.999,-0.82 0,-3.502C-0.169,-3.654 -0.193,-3.896 -0.084,-4.084C-0.06,-4.044 -0.036,-4.004 0,-3.972" style="fill-rule:nonzero;"/>
                                        </g>
                                    </g>
                                </g>
                                <g transform="matrix(0,1,1,0,-1399.21,499.547)">
                                    <path d="M4.573,-1.794C6.331,-1.794 7.757,-0.368 7.757,1.39C7.757,3.148 6.331,4.573 4.573,4.573C2.814,4.573 -1.39,1.39 -1.39,1.39C-1.39,1.39 2.814,-1.794 4.573,-1.794" style="fill:rgb(13,74,106);fill-rule:nonzero;"/>
                                </g>
                                <g transform="matrix(1,0,0,1,-1729.74,122.604)">
                                    <g opacity="0.15">
                                        <g transform="matrix(1,0,0,1,331.917,384.699)">
                                            <path d="M0,-9.146C0,-9.146 0.05,-9.08 0.137,-8.962C-0.807,-7.59 -2.245,-5.305 -2.245,-4.122C-2.245,-2.364 -0.819,-0.938 0.938,-0.938C1.578,-0.938 2.171,-1.128 2.67,-1.452C2.103,-0.579 1.119,0 0,0C-1.758,0 -3.184,-1.425 -3.184,-3.183C-3.184,-4.942 0,-9.146 0,-9.146" style="fill-rule:nonzero;"/>
                                        </g>
                                    </g>
                                </g>
                                <g transform="matrix(1,0,0,1,-1729.74,122.604)">
                                    <g opacity="0.15">
                                        <g transform="matrix(0.327866,0.944724,0.944724,-0.327866,332.982,379.376)">
                                            <path d="M0.644,-0.458C1.573,-0.457 2.325,-0.152 2.325,0.224C2.324,0.601 1.573,0.906 0.644,0.906C-0.284,0.905 -1.037,0.6 -1.037,0.224C-1.036,-0.153 -0.284,-0.458 0.644,-0.458" style="fill:white;fill-rule:nonzero;"/>
                                        </g>
                                    </g>
                                </g>
                                <g transform="matrix(0,1,1,0,-1382.79,499.546)">
                                    <path d="M4.573,-1.794C6.331,-1.794 7.757,-0.368 7.757,1.39C7.757,3.148 6.331,4.573 4.573,4.573C2.814,4.573 -1.39,1.39 -1.39,1.39C-1.39,1.39 2.814,-1.794 4.573,-1.794" style="fill:rgb(13,74,106);fill-rule:nonzero;"/>
                                </g>
                                <g transform="matrix(1,0,0,1,-1729.74,122.604)">
                                    <g opacity="0.15">
                                        <g transform="matrix(1,0,0,1,348.333,384.699)">
                                            <path d="M0,-9.146C0,-9.146 0.05,-9.08 0.137,-8.962C-0.807,-7.59 -2.245,-5.305 -2.245,-4.122C-2.245,-2.364 -0.819,-0.938 0.939,-0.938C1.578,-0.938 2.172,-1.128 2.67,-1.452C2.103,-0.579 1.12,0 0,0C-1.758,0 -3.184,-1.425 -3.184,-3.183C-3.184,-4.942 0,-9.146 0,-9.146" style="fill-rule:nonzero;"/>
                                        </g>
                                    </g>
                                </g>
                                <g transform="matrix(1,0,0,1,-1729.74,122.604)">
                                    <g opacity="0.15">
                                        <g transform="matrix(0.328094,0.944645,0.944645,-0.328094,349.398,379.376)">
                                            <path d="M0.644,-0.457C1.572,-0.457 2.324,-0.152 2.325,0.224C2.324,0.601 1.572,0.905 0.644,0.905C-0.285,0.905 -1.037,0.6 -1.038,0.224C-1.036,-0.153 -0.285,-0.458 0.644,-0.457" style="fill:white;fill-rule:nonzero;"/>
                                        </g>
                                    </g>
                                </g>
                                <g transform="matrix(0,1,1,0,-1366.38,499.546)">
                                    <path d="M4.573,-1.794C6.331,-1.794 7.757,-0.368 7.757,1.391C7.757,3.148 6.331,4.573 4.573,4.573C2.814,4.573 -1.39,1.391 -1.39,1.391C-1.39,1.391 2.814,-1.794 4.573,-1.794" style="fill:rgb(13,74,106);fill-rule:nonzero;"/>
                                </g>
                                <g transform="matrix(1,0,0,1,-1729.74,122.604)">
                                    <g opacity="0.15">
                                        <g transform="matrix(1,0,0,1,364.75,384.699)">
                                            <path d="M0,-9.146C0,-9.146 0.049,-9.08 0.136,-8.962C-0.808,-7.59 -2.245,-5.305 -2.245,-4.122C-2.245,-2.364 -0.82,-0.938 0.938,-0.938C1.577,-0.938 2.171,-1.128 2.669,-1.452C2.102,-0.579 1.119,0 0,0C-1.759,0 -3.185,-1.425 -3.185,-3.183C-3.185,-4.942 0,-9.146 0,-9.146" style="fill-rule:nonzero;"/>
                                        </g>
                                    </g>
                                </g>
                                <g transform="matrix(1,0,0,1,-1729.74,122.604)">
                                    <g opacity="0.15">
                                        <g transform="matrix(0.328094,0.944645,0.944645,-0.328094,365.814,379.376)">
                                            <path d="M0.644,-0.457C1.572,-0.457 2.324,-0.152 2.325,0.224C2.324,0.601 1.572,0.905 0.644,0.905C-0.285,0.905 -1.037,0.6 -1.038,0.224C-1.036,-0.153 -0.285,-0.458 0.644,-0.457" style="fill:white;fill-rule:nonzero;"/>
                                        </g>
                                    </g>
                                </g>
                                <g transform="matrix(1,0,0,1,-1729.74,371.716)">
                                    <rect x="331.331" y="123.685" width="34.005" height="3.518" style="fill:rgb(80,55,24);"/>
                                </g>
                                <g transform="matrix(1,0,0,1,-1729.74,122.604)">
                                    <g opacity="0.15">
                                        <g transform="matrix(1,0,0,1,334.38,376.316)">
                                            <path d="M0,-3.518L0,-0.822L30.956,-0.822L30.956,0L-3.049,0L-3.049,-3.518L0,-3.518Z" style="fill-rule:nonzero;"/>
                                        </g>
                                    </g>
                                </g>
                            </g>
                        </g>
                    </g>
                    <g transform="matrix(0.178175,0,0,0.292926,-789.063,-243.917)">
                        <path d="M-1867.91,353.889C-1852.23,354.031 -1837.37,361.402 -1824.25,370.277C-1817.48,374.861 -1811.12,380.054 -1805.28,385.78C-1805.28,385.78 -1796.44,384.526 -1788.39,384.34C-1781.63,384.184 -1774.86,384.638 -1768.15,385.659C-1768.15,385.659 -1766.72,384.55 -1765.31,383.235C-1751.25,370.225 -1734.46,359.284 -1716.33,355.215C-1704.19,352.492 -1690.37,354.359 -1681.98,363.371C-1670.2,376.031 -1668.5,396.047 -1670.18,415.435C-1671.36,429.069 -1674.36,442.595 -1679.81,455.092C-1679.81,455.092 -1676.39,463.851 -1674.37,472.155C-1667.29,501.186 -1670.75,533.939 -1691.85,554.766C-1710.7,573.372 -1738.74,580.036 -1764.85,582.267C-1787.25,584.181 -1809.98,583.768 -1832.06,579.149C-1855.95,574.148 -1879.6,562.249 -1891.29,540.365C-1904.58,515.504 -1902.72,483.911 -1892.41,457.398C-1892.41,457.398 -1892.9,456.301 -1893.43,455.101C-1903.72,431.526 -1907.32,403.596 -1900.41,380.367C-1896.28,366.443 -1885.33,354.373 -1869.18,353.902C-1868.76,353.892 -1868.33,353.888 -1867.91,353.889ZM-1868.49,359.813C-1876.81,359.927 -1884.94,363.915 -1889.58,370.74C-1900.45,386.743 -1899.04,409.154 -1895.21,428.887C-1893.43,438.005 -1890.83,446.97 -1886.81,455.308L-1886.32,456.399C-1885.82,458.824 -1886.02,457.266 -1887.36,460.768C-1899,491.784 -1898.06,529.716 -1875.2,552.051C-1857.02,569.815 -1829.73,575.112 -1805.13,576.724C-1778.87,578.444 -1752.04,577.354 -1727.3,568.916C-1709.38,562.805 -1692.63,551.337 -1684.2,534.174C-1672.57,510.462 -1675.36,480.956 -1685.85,456.397C-1685.85,456.397 -1686.35,455.297 -1684.95,452.056C-1675.06,428.829 -1671.51,400.907 -1679.5,379.055C-1682.57,370.664 -1688.7,363.018 -1697.51,360.727C-1710.93,357.236 -1725.61,363.225 -1738.36,370.595C-1747.82,376.061 -1756.54,382.783 -1764.29,390.47L-1765.14,391.264C-1766.7,392.216 -1764.82,392.159 -1769.62,391.427C-1781.58,389.669 -1793.78,389.898 -1805.57,392.054C-1805.57,392.054 -1807.67,391.734 -1809.43,390.003C-1825.58,374.162 -1845.88,360.174 -1867.66,359.814C-1867.94,359.812 -1868.21,359.811 -1868.49,359.813Z" style="fill:rgb(13,74,106);"/>
                    </g>
                </g>
            </g>
        </g>
    </g>
</svg>
